Fust & Schoeffer-Durandus-GoticoAntiqua 118G.ufo
<glyph name="C" format="1">
  <advance width="648"/>
  <unicode hex="0043"/>
  <outline>
    <contour>
      <point x="337" y="-19" type="curve"/>
      <point x="424" y="14"/>
      <point x="527" y="64"/>
      <point x="628" y="116" type="curve"/>
      <point x="612" y="147" type="line"/>
      <point x="536" y="111"/>
      <point x="452" y="89"/>
      <point x="412" y="89" type="curve"/>
      <point x="224" y="89"/>
      <point x="162" y="227"/>
      <point x="162" y="374" type="curve"/>
      <point x="162" y="516"/>
      <point x="224" y="572"/>
      <point x="297" y="614" type="curve"/>
      <point x="313" y="614"/>
      <point x="374" y="579"/>
      <point x="411" y="566" type="curve"/>
      <point x="448" y="595"/>
      <point x="511" y="633"/>
      <point x="616" y="687" type="curve"/>
      <point x="601" y="711" type="line"/>
      <point x="559" y="697"/>
      <point x="499" y="678"/>
      <point x="479" y="678" type="curve"/>
      <point x="448" y="678"/>
      <point x="425" y="707"/>
      <point x="384" y="721" type="curve"/>
      <point x="342" y="701"/>
      <point x="221" y="624"/>
      <point x="108" y="541" type="curve"/>
      <point x="67" y="490"/>
      <point x="30" y="411"/>
      <point x="30" y="307" type="curve"/>
      <point x="30" y="122"/>
      <point x="169" y="-19"/>
    </contour>
    <contour>
      <point x="339" y="0" type="move" name="bottom"/>
    </contour>
    <contour>
      <point x="339" y="700" type="move" name="top"/>
    </contour>
  </outline>
</glyph>
<glyph name="L" format="1">
  <advance width="548"/>
  <unicode hex="004C"/>
  <outline>
    <contour>
      <point x="32" y="-9" type="curve"/>
      <point x="44" y="-23" type="line"/>
      <point x="90" y="7"/>
      <point x="140" y="30"/>
      <point x="191" y="30" type="curve"/>
      <point x="280" y="30"/>
      <point x="335" y="-1"/>
      <point x="376" y="-19" type="curve"/>
      <point x="421" y="-19"/>
      <point x="484" y="44"/>
      <point x="538" y="90" type="curve"/>
      <point x="525" y="109" type="line"/>
      <point x="504" y="101"/>
      <point x="477" y="77"/>
      <point x="445" y="77" type="curve"/>
      <point x="402" y="77"/>
      <point x="332" y="130"/>
      <point x="282" y="130" type="curve"/>
      <point x="251" y="130"/>
      <point x="183" y="99"/>
      <point x="105" y="68" type="curve"/>
      <point x="126" y="65" type="line"/>
      <point x="170" y="111"/>
      <point x="200" y="146"/>
      <point x="252" y="228" type="curve"/>
      <point x="312" y="322"/>
      <point x="358" y="440"/>
      <point x="358" y="564" type="curve"/>
      <point x="358" y="627"/>
      <point x="351" y="668"/>
      <point x="332" y="700" type="curve"/>
      <point x="271" y="700" type="line"/>
      <point x="271" y="694" type="line"/>
      <point x="311" y="669"/>
      <point x="321" y="610"/>
      <point x="321" y="554" type="curve"/>
      <point x="321" y="486"/>
      <point x="306" y="419"/>
      <point x="277" y="358" type="curve"/>
      <point x="275" y="358" type="line"/>
      <point x="285" y="402"/>
      <point x="291" y="431"/>
      <point x="291" y="492" type="curve"/>
      <point x="291" y="606"/>
      <point x="242" y="697"/>
      <point x="162" y="712" type="curve"/>
      <point x="144" y="712"/>
      <point x="53" y="700"/>
      <point x="37" y="694" type="curve"/>
      <point x="37" y="682" type="line"/>
      <point x="154" y="635"/>
      <point x="200" y="520"/>
      <point x="193" y="410" type="curve"/>
      <point x="169" y="435"/>
      <point x="122" y="475"/>
      <point x="66" y="481" type="curve"/>
      <point x="63" y="478" type="line"/>
      <point x="148" y="407"/>
      <point x="168" y="323"/>
      <point x="168" y="312" type="curve"/>
      <point x="168" y="296"/>
      <point x="149" y="262"/>
      <point x="143" y="255" type="curve"/>
      <point x="126" y="276"/>
      <point x="101" y="298"/>
      <point x="38" y="298" type="curve"/>
      <point x="37" y="293" type="line"/>
      <point x="62" y="275"/>
      <point x="108" y="236"/>
      <point x="117" y="201" type="curve"/>
      <point x="96" y="104"/>
      <point x="75" y="48"/>
    </contour>
    <contour>
      <point x="274" y="0" type="move" name="bottom"/>
    </contour>
    <contour>
      <point x="274" y="350" type="move" name="center"/>
    </contour>
    <contour>
      <point x="274" y="700" type="move" name="top"/>
    </contour>
    <contour>
      <point x="528" y="700" type="move" name="topright"/>
    </contour>
  </outline>
</glyph>
<glyph name="O" format="1">
  <advance width="798"/>
  <unicode hex="004F"/>
  <outline>
    <contour>
      <point x="368" y="-19" type="curve"/>
      <point x="433" y="-9"/>
      <point x="768" y="151"/>
      <point x="768" y="390" type="curve"/>
      <point x="768" y="542"/>
      <point x="667" y="674"/>
      <point x="492" y="721" type="curve"/>
      <point x="333" y="700"/>
      <point x="195" y="622"/>
      <point x="115" y="567" type="curve"/>
      <point x="53" y="511"/>
      <point x="31" y="431"/>
      <point x="30" y="352" type="curve"/>
      <point x="27" y="146"/>
      <point x="168" y="8"/>
    </contour>
    <contour>
      <point x="402" y="72" type="curve"/>
      <point x="261" y="72"/>
      <point x="153" y="192"/>
      <point x="153" y="344" type="curve"/>
      <point x="153" y="488"/>
      <point x="237" y="643"/>
      <point x="404" y="643" type="curve"/>
      <point x="532" y="643"/>
      <point x="646" y="526"/>
      <point x="646" y="369" type="curve"/>
      <point x="646" y="190"/>
      <point x="532" y="72"/>
    </contour>
    <contour>
      <point x="392" y="0" type="move" name="bottom"/>
    </contour>
    <contour>
      <point x="392" y="350" type="move" name="center"/>
    </contour>
    <contour>
      <point x="713" y="10" type="move" name="ogonek"/>
    </contour>
    <contour>
      <point x="392" y="700" type="move" name="top"/>
    </contour>
    <contour>
      <point x="11" y="700" type="move" name="topleft"/>
    </contour>
    <contour>
      <point x="773" y="700" type="move" name="topright"/>
    </contour>
  </outline>
</glyph>
<glyph name="S" format="1">
  <advance width="827"/>
  <unicode hex="0053"/>
  <outline>
    <contour>
      <point x="-170" y="-25" type="curve"/>
      <point x="-150" y="-55" type="line"/>
      <point x="-23" y="20"/>
      <point x="46" y="68"/>
      <point x="152" y="68" type="curve"/>
      <point x="297" y="68"/>
      <point x="441" y="-10"/>
      <point x="509" y="-20" type="curve"/>
      <point x="538" y="-10"/>
      <point x="777" y="83"/>
      <point x="777" y="227" type="curve"/>
      <point x="777" y="375"/>
      <point x="669" y="461"/>
      <point x="513" y="461" type="curve"/>
      <point x="429" y="461"/>
      <point x="399" y="455"/>
      <point x="345" y="455" type="curve"/>
      <point x="261" y="455"/>
      <point x="220" y="501"/>
      <point x="222" y="559" type="curve"/>
      <point x="224" y="614"/>
      <point x="259" y="644"/>
      <point x="277" y="654" type="curve"/>
      <point x="368" y="664"/>
      <point x="415" y="624"/>
      <point x="415" y="565" type="curve"/>
      <point x="415" y="535"/>
      <point x="404" y="491"/>
      <point x="355" y="454" type="curve"/>
      <point x="390" y="440" type="line"/>
      <point x="456" y="503"/>
      <point x="526" y="538"/>
      <point x="529" y="615" type="curve"/>
      <point x="530" y="640"/>
      <point x="516" y="701"/>
      <point x="473" y="721" type="curve"/>
      <point x="404" y="721"/>
      <point x="305" y="718"/>
      <point x="270" y="697" type="curve"/>
      <point x="189" y="649"/>
      <point x="114" y="579"/>
      <point x="114" y="484" type="curve"/>
      <point x="114" y="390"/>
      <point x="189" y="333"/>
      <point x="291" y="333" type="curve"/>
      <point x="354" y="333"/>
      <point x="435" y="335"/>
      <point x="492" y="335" type="curve"/>
      <point x="593" y="335"/>
      <point x="690" y="291"/>
      <point x="690" y="194" type="curve"/>
      <point x="690" y="134"/>
      <point x="652" y="86"/>
      <point x="597" y="65" type="curve"/>
      <point x="536" y="62"/>
      <point x="313" y="182"/>
      <point x="219" y="182" type="curve"/>
      <point x="132" y="182"/>
      <point x="-37" y="54"/>
    </contour>
    <contour>
      <point x="334" y="0" type="move" name="bottom"/>
    </contour>
    <contour>
      <point x="334" y="700" type="move" name="top"/>
    </contour>
  </outline>
</glyph>
<glyph name="T" format="1">
  <advance width="730"/>
  <unicode hex="0054"/>
  <outline>
    <contour>
      <point x="394" y="-20" type="curve"/>
      <point x="487" y="10"/>
      <point x="630" y="99"/>
      <point x="660" y="117" type="curve"/>
      <point x="643" y="141" type="line"/>
      <point x="598" y="124"/>
      <point x="550" y="102"/>
      <point x="490" y="102" type="curve"/>
      <point x="351" y="102"/>
      <point x="265" y="190"/>
      <point x="265" y="314" type="curve"/>
      <point x="265" y="463"/>
      <point x="427" y="599"/>
      <point x="546" y="596" type="curve"/>
      <point x="584" y="595"/>
      <point x="633" y="596"/>
      <point x="671" y="604" type="curve"/>
      <point x="714" y="705" type="line"/>
      <point x="698" y="716" type="line"/>
      <point x="685" y="702"/>
      <point x="595" y="702"/>
      <point x="534" y="702" type="curve"/>
      <point x="453" y="702"/>
      <point x="346" y="710"/>
      <point x="272" y="710" type="curve"/>
      <point x="188" y="681"/>
      <point x="119" y="633"/>
      <point x="50" y="564" type="curve"/>
      <point x="72" y="550" type="line"/>
      <point x="193" y="624"/>
      <point x="296" y="626"/>
      <point x="431" y="604" type="curve"/>
      <point x="316" y="556"/>
      <point x="116" y="449"/>
      <point x="116" y="267" type="curve"/>
      <point x="116" y="106"/>
      <point x="209" y="11"/>
    </contour>
    <contour>
      <point x="365" y="0" type="move" name="bottom"/>
    </contour>
    <contour>
      <point x="365" y="350" type="move" name="center"/>
    </contour>
    <contour>
      <point x="365" y="700" type="move" name="top"/>
    </contour>
  </outline>
</glyph>
<glyph name="V" format="1">
  <advance width="909"/>
  <unicode hex="0056"/>
  <outline>
    <contour>
      <point x="515" y="0" type="curve"/>
      <point x="620" y="0" type="line"/>
      <point x="690" y="244"/>
      <point x="771" y="467"/>
      <point x="889" y="702" type="curve"/>
      <point x="876" y="719" type="line"/>
      <point x="853" y="712"/>
      <point x="788" y="702"/>
      <point x="738" y="702" type="curve"/>
      <point x="676" y="702"/>
      <point x="627" y="711"/>
      <point x="582" y="720" type="curve"/>
      <point x="562" y="681"/>
      <point x="499" y="618"/>
      <point x="479" y="582" type="curve"/>
      <point x="491" y="572"/>
      <point x="524" y="538"/>
      <point x="566" y="538" type="curve"/>
      <point x="577" y="553" type="line"/>
      <point x="562" y="572"/>
      <point x="549" y="596"/>
      <point x="551" y="619" type="curve"/>
      <point x="594" y="639"/>
      <point x="642" y="585"/>
      <point x="696" y="585" type="curve"/>
      <point x="720" y="585"/>
      <point x="752" y="589"/>
      <point x="783" y="599" type="curve"/>
      <point x="740" y="501"/>
      <point x="672" y="311"/>
      <point x="596" y="70" type="curve"/>
      <point x="611" y="90" type="line"/>
      <point x="571" y="332"/>
      <point x="373" y="712"/>
      <point x="174" y="712" type="curve"/>
      <point x="144" y="712"/>
      <point x="115" y="706"/>
      <point x="110" y="697" type="curve"/>
      <point x="91" y="663"/>
      <point x="42" y="590"/>
      <point x="22" y="560" type="curve"/>
      <point x="-12" y="508"/>
      <point x="29" y="442"/>
      <point x="79" y="422" type="curve"/>
      <point x="95" y="457"/>
      <point x="105" y="478"/>
      <point x="136" y="516" type="curve"/>
      <point x="59" y="570"/>
      <point x="88" y="616"/>
      <point x="122" y="616" type="curve"/>
      <point x="278" y="616"/>
      <point x="468" y="263"/>
    </contour>
    <contour>
      <point x="455" y="0" type="move" name="bottom"/>
    </contour>
    <contour>
      <point x="455" y="700" type="move" name="top"/>
    </contour>
  </outline>
</glyph>
<glyph name="W" format="1">
  <advance width="1163"/>
  <unicode hex="0057"/>
  <outline>
    <contour>
      <point x="779" y="0" type="curve"/>
      <point x="784" y="0" type="line"/>
      <point x="889" y="0" type="line"/>
      <point x="959" y="244"/>
      <point x="1040" y="467"/>
      <point x="1158" y="702" type="curve"/>
      <point x="1135" y="720" type="line"/>
      <point x="1122" y="713"/>
      <point x="1067" y="702"/>
      <point x="1017" y="702" type="curve"/>
      <point x="965" y="702"/>
      <point x="897" y="733"/>
      <point x="871" y="720" type="curve"/>
      <point x="823" y="659"/>
      <point x="788" y="617"/>
      <point x="768" y="582" type="curve"/>
      <point x="788" y="542"/>
      <point x="813" y="538"/>
      <point x="855" y="538" type="curve"/>
      <point x="866" y="553" type="line"/>
      <point x="851" y="572"/>
      <point x="833" y="596"/>
      <point x="831" y="619" type="curve"/>
      <point x="872" y="642"/>
      <point x="931" y="585"/>
      <point x="985" y="585" type="curve"/>
      <point x="1009" y="585"/>
      <point x="1030" y="595"/>
      <point x="1061" y="605" type="curve"/>
      <point x="1021" y="520"/>
      <point x="943" y="321"/>
      <point x="860" y="65" type="curve"/>
      <point x="880" y="77" type="line"/>
      <point x="832" y="318"/>
      <point x="735" y="717"/>
      <point x="535" y="717" type="curve"/>
      <point x="505" y="717"/>
      <point x="486" y="711"/>
      <point x="471" y="702" type="curve"/>
      <point x="452" y="668"/>
      <point x="394" y="558"/>
      <point x="374" y="528" type="curve"/>
      <point x="399" y="507" type="line"/>
      <point x="428" y="546"/>
      <point x="453" y="603"/>
      <point x="501" y="603" type="curve"/>
      <point x="655" y="603"/>
      <point x="732" y="263"/>
    </contour>
    <contour>
      <point x="510" y="0" type="curve"/>
      <point x="615" y="0" type="line"/>
      <point x="655" y="148"/>
      <point x="687" y="233"/>
      <point x="736" y="348" type="curve"/>
      <point x="707" y="401" type="line"/>
      <point x="699" y="383"/>
      <point x="589" y="68"/>
      <point x="601" y="94" type="curve"/>
      <point x="606" y="88" type="line"/>
      <point x="566" y="330"/>
      <point x="368" y="712"/>
      <point x="169" y="712" type="curve"/>
      <point x="139" y="712"/>
      <point x="120" y="707"/>
      <point x="105" y="697" type="curve"/>
      <point x="86" y="663"/>
      <point x="31" y="580"/>
      <point x="11" y="550" type="curve"/>
      <point x="-11" y="499"/>
      <point x="24" y="422"/>
      <point x="74" y="422" type="curve"/>
      <point x="90" y="442"/>
      <point x="109" y="478"/>
      <point x="131" y="516" type="curve"/>
      <point x="54" y="570"/>
      <point x="83" y="616"/>
      <point x="117" y="616" type="curve"/>
      <point x="273" y="616"/>
      <point x="463" y="263"/>
    </contour>
  </outline>
</glyph>
<glyph name="Y" format="1">
  <advance width="655"/>
  <unicode hex="0059"/>
  <outline>
    <contour>
      <point x="114" y="-209" type="curve"/>
      <point x="146" y="-230" type="line"/>
      <point x="330" y="33"/>
      <point x="506" y="311"/>
      <point x="602" y="453" type="curve"/>
      <point x="633" y="499"/>
      <point x="648" y="547"/>
      <point x="648" y="599" type="curve"/>
      <point x="648" y="669"/>
      <point x="592" y="718"/>
      <point x="523" y="720" type="curve"/>
      <point x="478" y="721"/>
      <point x="456" y="713"/>
      <point x="435" y="702" type="curve"/>
      <point x="386" y="661"/>
      <point x="345" y="608"/>
      <point x="300" y="544" type="curve"/>
      <point x="300" y="502" type="line"/>
      <point x="340" y="563"/>
      <point x="386" y="591"/>
      <point x="433" y="591" type="curve"/>
      <point x="485" y="591"/>
      <point x="528" y="546"/>
      <point x="528" y="487" type="curve"/>
      <point x="528" y="381"/>
      <point x="374" y="187"/>
      <point x="301" y="65" type="curve"/>
      <point x="316" y="54" type="line"/>
      <point x="319" y="517" type="line" smooth="yes"/>
      <point x="320" y="636"/>
      <point x="271" y="721"/>
      <point x="150" y="721" type="curve"/>
      <point x="101" y="674"/>
      <point x="15" y="565"/>
      <point x="5" y="554" type="curve"/>
      <point x="28" y="536" type="line"/>
      <point x="45" y="557"/>
      <point x="78" y="591"/>
      <point x="120" y="591" type="curve"/>
      <point x="165" y="591"/>
      <point x="190" y="563"/>
      <point x="189" y="517" type="curve"/>
      <point x="183" y="-6" type="line" smooth="yes"/>
      <point x="183" y="-36"/>
      <point x="155" y="-129"/>
    </contour>
    <contour>
      <point x="303" y="0" type="move" name="bottom"/>
    </contour>
    <contour>
      <point x="303" y="700" type="move" name="top"/>
    </contour>
    <contour>
      <point x="-29" y="700" type="move" name="topleft"/>
    </contour>
  </outline>
</glyph>
<glyph name="d" format="1">
  <advance width="504"/>
  <unicode hex="0064"/>
  <outline>
    <contour>
      <point x="191" y="-20" type="curve"/>
      <point x="242" y="10"/>
      <point x="298" y="48"/>
      <point x="347" y="77" type="curve"/>
      <point x="347" y="167" type="line"/>
      <point x="325" y="107"/>
      <point x="285" y="76"/>
      <point x="242" y="76" type="curve"/>
      <point x="188" y="76"/>
      <point x="131" y="118"/>
      <point x="131" y="198" type="curve"/>
      <point x="131" y="277"/>
      <point x="181" y="332"/>
      <point x="243" y="332" type="curve"/>
      <point x="275" y="332"/>
      <point x="341" y="319"/>
      <point x="345" y="229" type="curve"/>
      <point x="353" y="447" type="line"/>
      <point x="88" y="312" type="line" smooth="yes"/>
      <point x="45" y="290"/>
      <point x="14" y="252"/>
      <point x="14" y="168" type="curve"/>
      <point x="14" y="73"/>
      <point x="70" y="-10"/>
    </contour>
    <contour>
      <point x="411" y="-19" type="curve"/>
      <point x="426" y="-19"/>
      <point x="462" y="31"/>
      <point x="489" y="53" type="curve"/>
      <point x="489" y="70" type="line"/>
      <point x="455" y="75"/>
      <point x="445" y="92"/>
      <point x="445" y="127" type="curve"/>
      <point x="445" y="342"/>
      <point x="448" y="592"/>
      <point x="455" y="714" type="curve"/>
      <point x="449" y="719" type="line"/>
      <point x="277" y="640" type="line"/>
      <point x="286" y="619" type="line"/>
      <point x="305" y="627" type="line"/>
      <point x="341" y="603"/>
      <point x="342" y="559"/>
      <point x="346" y="447" type="curve"/>
      <point x="347" y="423"/>
      <point x="346" y="310"/>
      <point x="343" y="69" type="curve"/>
      <point x="342" y="24"/>
      <point x="365" y="-19"/>
    </contour>
    <contour>
      <point x="449" y="719" type="move"/>
    </contour>
    <contour>
      <point x="247" y="0" type="move" name="bottom"/>
    </contour>
    <contour>
      <point x="247" y="215" type="move" name="center"/>
    </contour>
    <contour>
      <point x="247" y="430" type="move" name="top"/>
    </contour>
    <contour>
      <point x="474" y="430" type="move" name="topright"/>
    </contour>
  </outline>
</glyph>
<glyph name="w" format="1">
  <advance width="772"/>
  <unicode hex="0077"/>
  <outline>
    <contour>
      <point x="582" y="-20" type="curve"/>
      <point x="598" y="-20" type="line"/>
      <point x="681" y="109"/>
      <point x="767" y="263"/>
      <point x="767" y="317" type="curve"/>
      <point x="767" y="386"/>
      <point x="703" y="451"/>
      <point x="621" y="451" type="curve"/>
      <point x="605" y="451"/>
      <point x="551" y="361"/>
      <point x="525" y="325" type="curve"/>
      <point x="540" y="286" type="line"/>
      <point x="559" y="323"/>
      <point x="586" y="334"/>
      <point x="599" y="334" type="curve"/>
      <point x="639" y="334"/>
      <point x="685" y="297"/>
      <point x="685" y="239" type="curve"/>
      <point x="685" y="220"/>
      <point x="682" y="184"/>
      <point x="645" y="134" type="curve"/>
      <point x="543" y="307" type="line"/>
      <point x="534" y="324" type="line"/>
      <point x="506" y="377" type="line" smooth="yes"/>
      <point x="482" y="423"/>
      <point x="458" y="449"/>
      <point x="379" y="449" type="curve"/>
      <point x="362" y="449"/>
      <point x="292" y="320"/>
      <point x="262" y="271" type="curve"/>
      <point x="283" y="257" type="line"/>
      <point x="300" y="282"/>
      <point x="324" y="325"/>
      <point x="354" y="325" type="curve"/>
      <point x="387" y="325"/>
      <point x="412" y="303"/>
      <point x="437" y="257" type="curve"/>
      <point x="467" y="201"/>
      <point x="518" y="105"/>
    </contour>
    <contour>
      <point x="324" y="-19" type="curve"/>
      <point x="340" y="-19" type="line"/>
      <point x="423" y="110"/>
      <point x="480" y="192"/>
      <point x="504" y="231" type="curve"/>
      <point x="471" y="255" type="line"/>
      <point x="460" y="238"/>
      <point x="426" y="179"/>
      <point x="389" y="129" type="curve"/>
      <point x="283" y="319" type="line"/>
      <point x="249" y="378" type="line" smooth="yes"/>
      <point x="223" y="423"/>
      <point x="201" y="450"/>
      <point x="122" y="450" type="curve"/>
      <point x="105" y="450"/>
      <point x="35" y="321"/>
      <point x="5" y="272" type="curve"/>
      <point x="26" y="258" type="line"/>
      <point x="43" y="283"/>
      <point x="68" y="326"/>
      <point x="87" y="326" type="curve"/>
      <point x="120" y="326"/>
      <point x="155" y="304"/>
      <point x="180" y="258" type="curve"/>
      <point x="210" y="202"/>
      <point x="260" y="106"/>
    </contour>
    <contour>
      <point x="438" y="240" type="move"/>
    </contour>
  </outline>
</glyph>
<glyph name="i_macr" format="1">
  <advance width="223"/>
  <unicode hex="012B"/>
  <outline>
    <contour>
      <point x="64" y="-10" type="curve"/>
      <point x="71" y="-14" type="line"/>
      <point x="183" y="11" type="line"/>
      <point x="180" y="115"/>
      <point x="182" y="238"/>
      <point x="182" y="332" type="curve"/>
      <point x="182" y="418"/>
      <point x="136" y="464"/>
      <point x="68" y="445" type="curve"/>
      <point x="6" y="362" type="line"/>
      <point x="6" y="342" type="line"/>
      <point x="36" y="334"/>
      <point x="64" y="331"/>
      <point x="66" y="282" type="curve"/>
      <point x="68" y="200"/>
      <point x="68" y="103"/>
    </contour>
    <contour>
      <point x="-20" y="566" type="curve"/>
      <point x="5" y="555" type="line"/>
      <point x="21" y="567"/>
      <point x="52" y="580"/>
      <point x="74" y="580" type="curve"/>
      <point x="97" y="580"/>
      <point x="156" y="573"/>
      <point x="180" y="573" type="curve"/>
      <point x="193" y="573"/>
      <point x="228" y="634"/>
      <point x="253" y="666" type="curve"/>
      <point x="225" y="675" type="line"/>
      <point x="211" y="669"/>
      <point x="198" y="667"/>
      <point x="176" y="667" type="curve"/>
      <point x="153" y="667"/>
      <point x="97" y="671"/>
      <point x="73" y="671" type="curve"/>
      <point x="61" y="671"/>
      <point x="6" y="598"/>
    </contour>
    <contour>
      <point x="112" y="0" type="move" name="bottom"/>
    </contour>
  </outline>
</glyph>
<glyph name="idotless" format="1">
  <advance width="232"/>
  <unicode hex="0131"/>
  <outline>
    <contour>
      <point x="68" y="-10" type="curve"/>
      <point x="75" y="-14" type="line"/>
      <point x="187" y="11" type="line"/>
      <point x="184" y="115"/>
      <point x="186" y="238"/>
      <point x="186" y="332" type="curve"/>
      <point x="186" y="418"/>
      <point x="140" y="464"/>
      <point x="72" y="445" type="curve"/>
      <point x="10" y="362" type="line"/>
      <point x="10" y="342" type="line"/>
      <point x="40" y="334"/>
      <point x="68" y="331"/>
      <point x="70" y="282" type="curve"/>
      <point x="72" y="200"/>
      <point x="72" y="103"/>
    </contour>
  </outline>
</glyph>
<glyph name="q_strok" format="1">
  <advance width="732"/>
  <unicode hex="A759"/>
  <outline>
    <contour>
      <point x="139" y="-208" type="curve"/>
      <point x="165" y="-242" type="line"/>
      <point x="409" y="-59"/>
      <point x="712" y="133"/>
      <point x="712" y="316" type="curve"/>
      <point x="712" y="390"/>
      <point x="648" y="440"/>
      <point x="596" y="461" type="curve"/>
      <point x="556" y="440"/>
      <point x="494" y="407"/>
      <point x="438" y="392" type="curve"/>
      <point x="435" y="343" type="line"/>
      <point x="503" y="394"/>
      <point x="603" y="347"/>
      <point x="603" y="255" type="curve"/>
      <point x="603" y="85"/>
      <point x="352" y="-56"/>
    </contour>
    <component base="q"/>
    <contour>
      <point x="183" y="0" type="move" name="bottom_1"/>
    </contour>
    <contour>
      <point x="549" y="0" type="move" name="bottom_2"/>
    </contour>
    <contour>
      <point x="366" y="0" type="move" name="caret_1"/>
    </contour>
    <contour>
      <point x="183" y="430" type="move" name="top_1"/>
    </contour>
    <contour>
      <point x="549" y="430" type="move" name="top_2"/>
    </contour>
  </outline>
</glyph>
<glyph name="v_hook" format="1">
  <advance width="634"/>
  <unicode hex="A75F"/>
  <outline>
    <contour>
      <point x="299" y="-19" type="curve"/>
      <point x="315" y="-19" type="line"/>
      <point x="408" y="51"/>
      <point x="634" y="293"/>
      <point x="634" y="347" type="curve"/>
      <point x="634" y="389"/>
      <point x="558" y="449"/>
      <point x="544" y="449" type="curve"/>
      <point x="528" y="449"/>
      <point x="411" y="345"/>
      <point x="348" y="310" type="curve"/>
      <point x="365" y="267" type="line"/>
      <point x="375" y="285"/>
      <point x="442" y="330"/>
      <point x="454" y="330" type="curve"/>
      <point x="494" y="330"/>
      <point x="513" y="298"/>
      <point x="513" y="250" type="curve"/>
      <point x="513" y="211"/>
      <point x="430" y="137"/>
      <point x="393" y="107" type="curve"/>
      <point x="391" y="186"/>
      <point x="377" y="270"/>
      <point x="346" y="336" type="curve"/>
      <point x="306" y="421"/>
      <point x="193" y="570"/>
      <point x="117" y="570" type="curve"/>
      <point x="100" y="570"/>
      <point x="30" y="441"/>
      <point x="0" y="392" type="curve"/>
      <point x="21" y="378" type="line"/>
      <point x="38" y="403"/>
      <point x="63" y="446"/>
      <point x="82" y="446" type="curve"/>
      <point x="115" y="446"/>
      <point x="221" y="348"/>
      <point x="258" y="238" type="curve"/>
      <point x="284" y="162"/>
      <point x="292" y="108"/>
    </contour>
    <contour>
      <point x="93" y="161" type="curve"/>
      <point x="119" y="141" type="line"/>
      <point x="192" y="212"/>
      <point x="548" y="591"/>
      <point x="547" y="605" type="curve"/>
      <point x="545" y="619"/>
      <point x="512" y="662"/>
      <point x="473" y="696" type="curve"/>
      <point x="467" y="695" type="line"/>
      <point x="365" y="626" type="line"/>
      <point x="365" y="621" type="line"/>
      <point x="400" y="607"/>
      <point x="425" y="589"/>
      <point x="429" y="550" type="curve"/>
      <point x="432" y="514"/>
      <point x="120" y="193"/>
    </contour>
    <contour>
      <point x="156" y="0" type="move" name="bottom_1"/>
    </contour>
    <contour>
      <point x="478" y="0" type="move" name="bottom_2"/>
    </contour>
    <contour>
      <point x="317" y="0" type="move" name="caret_1"/>
    </contour>
    <contour>
      <point x="156" y="430" type="move" name="top_1"/>
    </contour>
    <contour>
      <point x="478" y="430" type="move" name="top_2"/>
    </contour>
  </outline>
</glyph>
<glyph name="l_strok" format="1">
  <advance width="232"/>
  <unicode hex="A769"/>
  <outline>
    <contour>
      <point x="98" y="417" type="curve"/>
      <point x="122" y="395" type="line"/>
      <point x="201" y="459"/>
      <point x="387" y="607"/>
      <point x="387" y="621" type="curve"/>
      <point x="387" y="635"/>
      <point x="378" y="681"/>
      <point x="342" y="718" type="curve"/>
      <point x="336" y="718" type="line"/>
      <point x="208" y="688" type="line"/>
      <point x="208" y="677" type="line"/>
      <point x="243" y="660"/>
      <point x="274" y="644"/>
      <point x="274" y="605" type="curve"/>
      <point x="274" y="560"/>
      <point x="128" y="446"/>
    </contour>
    <component base="l"/>
    <contour>
      <point x="184" y="0" type="move" name="bottom"/>
    </contour>
    <contour>
      <point x="184" y="215" type="move" name="center"/>
    </contour>
    <contour>
      <point x="184" y="430" type="move" name="top"/>
    </contour>
    <contour>
      <point x="372" y="430" type="move" name="topright"/>
    </contour>
  </outline>
</glyph>
<glyph name="q_macr" format="1">
  <advance width="495"/>
  <unicode hex="E681"/>
  <outline>
    <contour>
      <point x="140" y="588" type="curve"/>
      <point x="168" y="577" type="line"/>
      <point x="186" y="589"/>
      <point x="221" y="602"/>
      <point x="246" y="602" type="curve"/>
      <point x="272" y="602"/>
      <point x="339" y="595"/>
      <point x="366" y="595" type="curve"/>
      <point x="381" y="615"/>
      <point x="420" y="656"/>
      <point x="448" y="688" type="curve"/>
      <point x="417" y="697" type="line"/>
      <point x="401" y="691"/>
      <point x="386" y="689"/>
      <point x="361" y="689" type="curve"/>
      <point x="335" y="689"/>
      <point x="252" y="693"/>
      <point x="225" y="693" type="curve"/>
      <point x="202" y="673"/>
      <point x="170" y="620"/>
    </contour>
    <component base="q"/>
    <contour>
      <point x="248" y="0" type="move" name="bottom"/>
    </contour>
    <contour>
      <point x="248" y="430" type="move" name="top"/>
    </contour>
  </outline>
</glyph>
<glyph name="t_acute" format="1">
  <advance width="555"/>
  <unicode hex="E6E2"/>
  <outline>
    <contour>
      <point x="267" y="594" type="curve"/>
      <point x="225" y="505" type="line"/>
      <point x="291" y="503"/>
      <point x="365" y="503"/>
      <point x="422" y="505" type="curve"/>
      <point x="473" y="549"/>
      <point x="525" y="577"/>
      <point x="555" y="628" type="curve"/>
      <point x="555" y="653"/>
      <point x="548" y="697"/>
      <point x="526" y="715" type="curve"/>
      <point x="428" y="683" type="line"/>
      <point x="422" y="668" type="line"/>
      <point x="454" y="653"/>
      <point x="471" y="623"/>
      <point x="467" y="582" type="curve"/>
      <point x="422" y="581"/>
      <point x="306" y="594"/>
    </contour>
    <component base="t"/>
    <contour>
      <point x="277" y="0" type="move" name="bottom"/>
    </contour>
    <contour>
      <point x="277" y="215" type="move" name="center"/>
    </contour>
    <contour>
      <point x="277" y="430" type="move" name="top"/>
    </contour>
    <contour>
      <point x="533" y="430" type="move" name="topright"/>
    </contour>
  </outline>
</glyph>
<glyph name="c_t" format="1">
  <advance width="602"/>
  <unicode hex="EEC5"/>
  <outline>
    <contour>
      <point x="149" y="-20" type="curve"/>
      <point x="157" y="-20"/>
      <point x="268" y="11"/>
      <point x="352" y="65" type="curve"/>
      <point x="357" y="30"/>
      <point x="423" y="-20"/>
      <point x="452" y="-20" type="curve"/>
      <point x="488" y="-20"/>
      <point x="532" y="35"/>
      <point x="574" y="70" type="curve"/>
      <point x="573" y="93" type="line"/>
      <point x="519" y="84"/>
      <point x="477" y="93"/>
      <point x="473" y="131" type="curve"/>
      <point x="466" y="201"/>
      <point x="466" y="272"/>
      <point x="471" y="342" type="curve"/>
      <point x="602" y="341" type="line"/>
      <point x="602" y="430" type="line"/>
      <point x="472" y="430" type="line"/>
      <point x="470" y="549" type="line" smooth="yes"/>
      <point x="469" y="609"/>
      <point x="442" y="660"/>
      <point x="378" y="660" type="curve"/>
      <point x="321" y="660"/>
      <point x="190" y="605"/>
      <point x="86" y="538" type="curve"/>
      <point x="93" y="510" type="line"/>
      <point x="163" y="559"/>
      <point x="227" y="577"/>
      <point x="277" y="577" type="curve"/>
      <point x="325" y="577"/>
      <point x="361" y="551"/>
      <point x="360" y="497" type="curve"/>
      <point x="359" y="404" type="line" smooth="yes"/>
      <point x="359" y="391"/>
      <point x="339" y="372"/>
      <point x="325" y="372" type="curve"/>
      <point x="268" y="372"/>
      <point x="248" y="451"/>
      <point x="232" y="451" type="curve"/>
      <point x="210" y="451"/>
      <point x="63" y="356"/>
      <point x="44" y="341" type="curve"/>
      <point x="31" y="330"/>
      <point x="14" y="224"/>
      <point x="14" y="125" type="curve"/>
      <point x="14" y="91"/>
      <point x="98" y="-20"/>
    </contour>
    <contour>
      <point x="192" y="97" type="curve"/>
      <point x="153" y="113"/>
      <point x="139" y="165"/>
      <point x="139" y="265" type="curve"/>
      <point x="139" y="292"/>
      <point x="144" y="333"/>
      <point x="148" y="353" type="curve"/>
      <point x="193" y="347"/>
      <point x="212" y="299"/>
      <point x="218" y="299" type="curve"/>
      <point x="226" y="299"/>
      <point x="326" y="347"/>
      <point x="339" y="347" type="curve"/>
      <point x="352" y="347"/>
      <point x="357" y="340"/>
      <point x="358" y="330" type="curve"/>
      <point x="361" y="274"/>
      <point x="360" y="193"/>
      <point x="354" y="97" type="curve"/>
      <point x="281" y="82"/>
      <point x="222" y="84"/>
    </contour>
    <contour>
      <point x="124" y="0" type="move" name="bottom_1"/>
    </contour>
    <contour>
      <point x="443" y="0" type="move" name="bottom_2"/>
    </contour>
    <contour>
      <point x="283" y="0" type="move" name="caret_1"/>
    </contour>
    <contour>
      <point x="124" y="430" type="move" name="top_1"/>
    </contour>
    <contour>
      <point x="443" y="430" type="move" name="top_2"/>
    </contour>
  </outline>
</glyph>
<glyph name="p_p" format="1">
  <advance width="784"/>
  <unicode hex="EED6"/>
  <outline>
    <contour>
      <point x="70" y="-239" type="curve"/>
      <point x="77" y="-244" type="line"/>
      <point x="218" y="-192" type="line"/>
      <point x="218" y="-171" type="line"/>
      <point x="203" y="-159"/>
      <point x="189" y="-153"/>
      <point x="188" y="-132" type="curve"/>
      <point x="187" y="-117"/>
      <point x="183" y="-61"/>
      <point x="184" y="-13" type="curve"/>
      <point x="194" y="-10"/>
      <point x="292" y="29"/>
      <point x="317" y="29" type="curve"/>
      <point x="326" y="29"/>
      <point x="354" y="6"/>
      <point x="354" y="-4" type="curve"/>
      <point x="354" y="-96"/>
      <point x="353" y="-170"/>
      <point x="351" y="-239" type="curve"/>
      <point x="358" y="-244" type="line"/>
      <point x="511" y="-192" type="line"/>
      <point x="511" y="-171" type="line"/>
      <point x="496" y="-159"/>
      <point x="483" y="-153"/>
      <point x="481" y="-132" type="curve"/>
      <point x="479" y="-117"/>
      <point x="476" y="-58"/>
      <point x="477" y="-10" type="curve"/>
      <point x="538" y="14"/>
      <point x="705" y="86"/>
      <point x="737" y="120" type="curve"/>
      <point x="755" y="139"/>
      <point x="770" y="182"/>
      <point x="769" y="261" type="curve"/>
      <point x="768" y="373"/>
      <point x="665" y="451"/>
      <point x="576" y="451" type="curve"/>
      <point x="559" y="451"/>
      <point x="518" y="399"/>
      <point x="469" y="354" type="curve"/>
      <point x="472" y="449" type="line"/>
      <point x="458" y="453" type="line"/>
      <point x="439" y="452"/>
      <point x="237" y="369"/>
      <point x="178" y="343" type="curve"/>
      <point x="183" y="466" type="line"/>
      <point x="173" y="470" type="line"/>
      <point x="147" y="454"/>
      <point x="48" y="394"/>
      <point x="15" y="377" type="curve"/>
      <point x="16" y="357" type="line"/>
      <point x="53" y="344"/>
      <point x="70" y="310"/>
      <point x="70" y="281" type="curve"/>
      <point x="73" y="117" type="line" smooth="yes"/>
      <point x="73" y="110"/>
      <point x="59" y="86"/>
      <point x="18" y="27" type="curve"/>
      <point x="18" y="21" type="line"/>
      <point x="59" y="9"/>
      <point x="73" y="9"/>
      <point x="73" y="-18" type="curve"/>
      <point x="75" y="-100"/>
      <point x="72" y="-170"/>
    </contour>
    <contour>
      <point x="343" y="74" type="curve"/>
      <point x="260" y="63"/>
      <point x="212" y="78"/>
      <point x="193" y="136" type="curve"/>
      <point x="177" y="186"/>
      <point x="180" y="264"/>
      <point x="187" y="304" type="curve"/>
      <point x="211" y="319"/>
      <point x="240" y="335"/>
      <point x="277" y="335" type="curve"/>
      <point x="335" y="335"/>
      <point x="359" y="284"/>
      <point x="360" y="231" type="curve"/>
      <point x="361" y="182"/>
      <point x="358" y="123"/>
    </contour>
    <contour>
      <point x="465" y="142" type="line"/>
      <point x="465" y="143" type="line"/>
    </contour>
    <contour>
      <point x="566" y="73" type="curve"/>
      <point x="530" y="72"/>
      <point x="500" y="92"/>
      <point x="482" y="111" type="curve"/>
      <point x="460" y="163"/>
      <point x="464" y="270"/>
      <point x="471" y="314" type="curve"/>
      <point x="490" y="330"/>
      <point x="514" y="344"/>
      <point x="540" y="344" type="curve"/>
      <point x="603" y="344"/>
      <point x="646" y="289"/>
      <point x="647" y="224" type="curve"/>
      <point x="649" y="126"/>
      <point x="611" y="74"/>
    </contour>
    <contour>
      <point x="197" y="0" type="move" name="bottom_1"/>
    </contour>
    <contour>
      <point x="591" y="0" type="move" name="bottom_2"/>
    </contour>
    <contour>
      <point x="394" y="0" type="move" name="caret_1"/>
    </contour>
    <contour>
      <point x="197" y="430" type="move" name="top_1"/>
    </contour>
    <contour>
      <point x="591" y="430" type="move" name="top_2"/>
    </contour>
  </outline>
</glyph>
<glyph name="f_f" format="1">
  <advance width="566"/>
  <unicode hex="FB00"/>
  <outline>
    <contour>
      <point x="66" y="279" type="curve"/>
      <point x="66" y="-17" type="line"/>
      <point x="72" y="-20" type="line"/>
      <point x="178" y="9" type="line"/>
      <point x="178" y="321" type="line"/>
      <point x="341" y="321" type="line"/>
      <point x="341" y="408" type="line"/>
      <point x="178" y="408" type="line"/>
      <point x="178" y="410"/>
      <point x="178" y="586"/>
      <point x="178" y="600" type="curve"/>
      <point x="192" y="610"/>
      <point x="207" y="612"/>
      <point x="221" y="612" type="curve"/>
      <point x="248" y="612"/>
      <point x="300" y="595"/>
      <point x="326" y="566" type="curve"/>
      <point x="334" y="567" type="line"/>
      <point x="416" y="640" type="line"/>
      <point x="416" y="646" type="line"/>
      <point x="374" y="681"/>
      <point x="287" y="699"/>
      <point x="251" y="699" type="curve"/>
      <point x="242" y="699"/>
      <point x="107" y="610"/>
      <point x="77" y="589" type="curve"/>
      <point x="63" y="579"/>
      <point x="62" y="578"/>
      <point x="64" y="562" type="curve"/>
      <point x="74" y="482"/>
      <point x="53" y="421"/>
      <point x="20" y="357" type="curve"/>
      <point x="20" y="350" type="line"/>
      <point x="43" y="333"/>
      <point x="66" y="323"/>
    </contour>
    <contour>
      <point x="328" y="279" type="curve"/>
      <point x="328" y="-17" type="line"/>
      <point x="334" y="-20" type="line"/>
      <point x="440" y="9" type="line"/>
      <point x="440" y="321" type="line"/>
      <point x="566" y="321" type="line"/>
      <point x="566" y="408" type="line"/>
      <point x="440" y="408" type="line"/>
      <point x="440" y="410"/>
      <point x="440" y="586"/>
      <point x="440" y="600" type="curve"/>
      <point x="454" y="610"/>
      <point x="469" y="612"/>
      <point x="483" y="612" type="curve"/>
      <point x="510" y="612"/>
      <point x="543" y="590"/>
      <point x="569" y="561" type="curve"/>
      <point x="577" y="562" type="line"/>
      <point x="656" y="640" type="line"/>
      <point x="656" y="646" type="line"/>
      <point x="614" y="681"/>
      <point x="549" y="699"/>
      <point x="513" y="699" type="curve"/>
      <point x="504" y="699"/>
      <point x="369" y="620"/>
      <point x="339" y="599" type="curve"/>
      <point x="325" y="589"/>
      <point x="326" y="598"/>
      <point x="326" y="582" type="curve"/>
      <point x="326" y="502"/>
      <point x="328" y="323"/>
    </contour>
    <contour>
      <point x="309" y="0" type="move" name="caret_1"/>
    </contour>
  </outline>
</glyph>
<glyph name="f_i" format="1">
  <advance width="473"/>
  <unicode hex="FB01"/>
  <outline>
    <contour>
      <point x="347" y="-20" type="curve"/>
      <point x="360" y="-20"/>
      <point x="400" y="16"/>
      <point x="428" y="35" type="curve"/>
      <point x="428" y="54" type="line"/>
      <point x="397" y="68"/>
      <point x="394" y="80"/>
      <point x="393" y="97" type="curve"/>
      <point x="392" y="178"/>
      <point x="392" y="243"/>
      <point x="393" y="312" type="curve"/>
      <point x="394" y="370"/>
      <point x="397" y="413"/>
      <point x="402" y="442" type="curve"/>
      <point x="386" y="452" type="line"/>
      <point x="347" y="432"/>
      <point x="307" y="412"/>
      <point x="268" y="407" type="curve"/>
      <point x="249" y="323" type="line"/>
      <point x="268" y="323"/>
      <point x="276" y="307"/>
      <point x="277" y="279" type="curve"/>
      <point x="278" y="240"/>
      <point x="278" y="108"/>
      <point x="278" y="85" type="curve"/>
      <point x="278" y="2"/>
      <point x="323" y="-20"/>
    </contour>
    <component base="f"/>
    <contour>
      <point x="112" y="0" type="move" name="bottom_1"/>
    </contour>
    <contour>
      <point x="336" y="0" type="move" name="bottom_2"/>
    </contour>
    <contour>
      <point x="224" y="0" type="move" name="caret_1"/>
    </contour>
    <contour>
      <point x="112" y="430" type="move" name="top_1"/>
    </contour>
    <contour>
      <point x="336" y="430" type="move" name="top_2"/>
    </contour>
  </outline>
</glyph>
<glyph name="A.ss01" format="1">
  <advance width="603"/>
  <outline>
    <contour>
      <point x="400" y="208" type="curve"/>
      <point x="382" y="243" type="line"/>
      <point x="358" y="182"/>
      <point x="257" y="108"/>
      <point x="200" y="108" type="curve"/>
      <point x="156" y="108"/>
      <point x="140" y="127"/>
      <point x="140" y="165" type="curve"/>
      <point x="140" y="247"/>
      <point x="267" y="331"/>
      <point x="399" y="465" type="curve"/>
      <point x="390" y="506" type="line"/>
      <point x="127" y="270" type="line" smooth="yes"/>
      <point x="76" y="225"/>
      <point x="43" y="164"/>
      <point x="43" y="98" type="curve"/>
      <point x="43" y="29"/>
      <point x="72" y="-20"/>
      <point x="146" y="-20" type="curve"/>
      <point x="214" y="-20"/>
      <point x="318" y="89"/>
    </contour>
    <contour>
      <point x="369" y="187" type="curve"/>
      <point x="365" y="119"/>
      <point x="411" y="35"/>
      <point x="450" y="-20" type="curve"/>
      <point x="467" y="-20"/>
      <point x="529" y="33"/>
      <point x="553" y="64" type="curve"/>
      <point x="553" y="86" type="line"/>
      <point x="521" y="95"/>
      <point x="494" y="116"/>
      <point x="494" y="183" type="curve"/>
      <point x="496" y="578" type="line" smooth="yes"/>
      <point x="496" y="651"/>
      <point x="410" y="717"/>
      <point x="337" y="717" type="curve"/>
      <point x="280" y="717"/>
      <point x="222" y="680"/>
      <point x="75" y="579" type="curve"/>
      <point x="95" y="552" type="line"/>
      <point x="166" y="599"/>
      <point x="209" y="634"/>
      <point x="264" y="634" type="curve"/>
      <point x="320" y="634"/>
      <point x="380" y="601"/>
      <point x="380" y="530" type="curve"/>
      <point x="380" y="471"/>
      <point x="376" y="205"/>
    </contour>
    <contour>
      <point x="302" y="0" type="move" name="bottom"/>
    </contour>
    <contour>
      <point x="543" y="10" type="move" name="ogonek"/>
    </contour>
    <contour>
      <point x="302" y="700" type="move" name="top"/>
    </contour>
  </outline>
</glyph>
<glyph name="C.ss01" format="1">
  <advance width="689"/>
  <outline>
    <contour>
      <point x="388" y="-20" type="curve"/>
      <point x="469" y="0"/>
      <point x="553" y="46"/>
      <point x="659" y="105" type="curve"/>
      <point x="645" y="135" type="line"/>
      <point x="572" y="103"/>
      <point x="524" y="79"/>
      <point x="436" y="79" type="curve"/>
      <point x="288" y="79"/>
      <point x="158" y="191"/>
      <point x="158" y="377" type="curve"/>
      <point x="158" y="496"/>
      <point x="196" y="593"/>
      <point x="330" y="650" type="curve"/>
      <point x="489" y="635"/>
      <point x="537" y="610"/>
      <point x="570" y="543" type="curve"/>
      <point x="586" y="539" type="line"/>
      <point x="657" y="602" type="line"/>
      <point x="658" y="671"/>
      <point x="601" y="706"/>
      <point x="553" y="720" type="curve"/>
      <point x="250" y="720"/>
      <point x="25" y="580"/>
      <point x="25" y="315" type="curve"/>
      <point x="25" y="125"/>
      <point x="180" y="-20"/>
    </contour>
    <contour>
      <point x="345" y="0" type="move" name="bottom"/>
    </contour>
    <contour>
      <point x="-94" y="-60" type="move" name="new anchor"/>
    </contour>
    <contour>
      <point x="345" y="700" type="move" name="top"/>
    </contour>
  </outline>
</glyph>
<glyph name="M.ss01" format="1">
  <advance width="860"/>
  <outline>
    <contour>
      <point x="350" y="-127" type="curve"/>
      <point x="357" y="-138" type="line"/>
      <point x="481" y="-138"/>
      <point x="557" y="-81"/>
      <point x="655" y="19" type="curve"/>
      <point x="758" y="124"/>
      <point x="812" y="213"/>
      <point x="812" y="335" type="curve"/>
      <point x="812" y="510"/>
      <point x="742" y="633"/>
      <point x="616" y="726" type="curve"/>
      <point x="552" y="680"/>
      <point x="482" y="594"/>
      <point x="436" y="552" type="curve"/>
      <point x="443" y="495" type="line"/>
      <point x="494" y="566"/>
      <point x="537" y="597"/>
      <point x="595" y="640" type="curve"/>
      <point x="555" y="632" type="line"/>
      <point x="641" y="558"/>
      <point x="693" y="460"/>
      <point x="693" y="314" type="curve"/>
      <point x="693" y="116"/>
      <point x="572" y="-34"/>
      <point x="531" y="-34" type="curve"/>
      <point x="510" y="-34"/>
      <point x="479" y="-15"/>
      <point x="466" y="-6" type="curve"/>
      <point x="449" y="-26"/>
      <point x="397" y="-76"/>
    </contour>
    <contour>
      <point x="202" y="-22" type="curve"/>
      <point x="282" y="25"/>
      <point x="370" y="93"/>
      <point x="405" y="126" type="curve"/>
      <point x="440" y="174"/>
      <point x="493" y="261"/>
      <point x="493" y="357" type="curve"/>
      <point x="493" y="542"/>
      <point x="355" y="669"/>
      <point x="308" y="717" type="curve"/>
      <point x="288" y="717"/>
      <point x="95" y="582"/>
      <point x="82" y="563" type="curve"/>
      <point x="55" y="518"/>
      <point x="14" y="432"/>
      <point x="14" y="334" type="curve"/>
      <point x="14" y="146"/>
      <point x="121" y="42"/>
    </contour>
    <contour>
      <point x="266" y="75" type="curve"/>
      <point x="217" y="98"/>
      <point x="131" y="225"/>
      <point x="131" y="359" type="curve"/>
      <point x="131" y="491"/>
      <point x="193" y="576"/>
      <point x="238" y="613" type="curve"/>
      <point x="297" y="565"/>
      <point x="372" y="483"/>
      <point x="372" y="330" type="curve"/>
      <point x="372" y="222"/>
      <point x="309" y="122"/>
    </contour>
    <contour>
      <point x="430" y="0" type="move" name="bottom"/>
    </contour>
    <contour>
      <point x="430" y="700" type="move" name="top"/>
    </contour>
  </outline>
</glyph>
<glyph name="P.ss01" format="1">
  <advance width="643"/>
  <outline>
    <contour>
      <point x="77" y="-210" type="curve"/>
      <point x="82" y="-241" type="line"/>
      <point x="137" y="-209"/>
      <point x="215" y="-179"/>
      <point x="295" y="-155" type="curve"/>
      <point x="293" y="-122" type="line"/>
      <point x="279" y="-126"/>
      <point x="265" y="-127"/>
      <point x="247" y="-131" type="curve"/>
      <point x="247" y="22" type="line"/>
      <point x="306" y="42"/>
      <point x="400" y="-12"/>
      <point x="442" y="-12" type="curve"/>
      <point x="458" y="-12"/>
      <point x="628" y="145"/>
      <point x="628" y="211" type="curve"/>
      <point x="628" y="302"/>
      <point x="323" y="536"/>
      <point x="372" y="702" type="curve"/>
      <point x="352" y="708" type="line"/>
      <point x="271" y="633"/>
      <point x="144" y="536"/>
      <point x="24" y="459" type="curve"/>
      <point x="35" y="428" type="line"/>
      <point x="119" y="476" type="line"/>
      <point x="128" y="445"/>
      <point x="131" y="401"/>
      <point x="131" y="352" type="curve"/>
      <point x="132" y="61" type="line"/>
      <point x="120" y="45"/>
      <point x="96" y="16"/>
      <point x="75" y="-15" type="curve"/>
      <point x="80" y="-36" type="line"/>
      <point x="131" y="5" type="line"/>
      <point x="131" y="-42"/>
      <point x="126" y="-95"/>
      <point x="125" y="-121" type="curve"/>
      <point x="123" y="-173"/>
      <point x="128" y="-171"/>
    </contour>
    <contour>
      <point x="498" y="91" type="curve"/>
      <point x="443" y="85"/>
      <point x="359" y="119"/>
      <point x="283" y="138" type="curve"/>
      <point x="271" y="138"/>
      <point x="259" y="132"/>
      <point x="251" y="129" type="curve"/>
      <point x="251" y="492" type="line" smooth="yes"/>
      <point x="251" y="536"/>
      <point x="259" y="562"/>
      <point x="269" y="581" type="curve"/>
      <point x="306" y="503"/>
      <point x="365" y="400"/>
      <point x="415" y="330" type="curve"/>
      <point x="472" y="251"/>
      <point x="532" y="199"/>
      <point x="532" y="157" type="curve"/>
      <point x="532" y="122"/>
      <point x="511" y="99"/>
    </contour>
    <contour>
      <point x="322" y="0" type="move" name="bottom"/>
    </contour>
    <contour>
      <point x="322" y="700" type="move" name="top"/>
    </contour>
  </outline>
</glyph>
<glyph name="V.ss01" format="1">
  <advance width="1229"/>
  <outline>
    <contour>
      <point x="310" y="0" type="curve"/>
      <point x="326" y="-19" type="line"/>
      <point x="413" y="16"/>
      <point x="478" y="35"/>
      <point x="565" y="35" type="curve"/>
      <point x="643" y="35"/>
      <point x="801" y="5"/>
      <point x="892" y="-16" type="curve"/>
      <point x="926" y="10"/>
      <point x="1057" y="115"/>
      <point x="1147" y="178" type="curve"/>
      <point x="1204" y="252"/>
      <point x="1204" y="357"/>
      <point x="1204" y="388" type="curve"/>
      <point x="1204" y="546"/>
      <point x="1111" y="685"/>
      <point x="936" y="685" type="curve"/>
      <point x="882" y="685"/>
      <point x="839" y="671"/>
      <point x="801" y="653" type="curve"/>
      <point x="754" y="576"/>
      <point x="694" y="496"/>
      <point x="694" y="465" type="curve"/>
      <point x="694" y="405"/>
      <point x="735" y="374"/>
      <point x="767" y="350" type="curve"/>
      <point x="792" y="360"/>
      <point x="831" y="377"/>
      <point x="873" y="407" type="curve"/>
      <point x="873" y="413" type="line"/>
      <point x="797" y="452"/>
      <point x="783" y="495"/>
      <point x="783" y="562" type="curve"/>
      <point x="806" y="578"/>
      <point x="840" y="588"/>
      <point x="875" y="588" type="curve"/>
      <point x="1020" y="588"/>
      <point x="1089" y="487"/>
      <point x="1089" y="357" type="curve"/>
      <point x="1089" y="219"/>
      <point x="967" y="93"/>
      <point x="947" y="93" type="curve"/>
      <point x="882" y="111"/>
      <point x="779" y="151"/>
      <point x="697" y="151" type="curve"/>
      <point x="632" y="151"/>
      <point x="526" y="125"/>
      <point x="459" y="91" type="curve"/>
      <point x="515" y="150"/>
      <point x="570" y="199"/>
      <point x="571" y="287" type="curve"/>
      <point x="573" y="431"/>
      <point x="566" y="574"/>
      <point x="574" y="718" type="curve"/>
      <point x="561" y="722" type="line"/>
      <point x="500" y="685"/>
      <point x="446" y="674"/>
      <point x="372" y="674" type="curve"/>
      <point x="300" y="674"/>
      <point x="208" y="700"/>
      <point x="193" y="700" type="curve"/>
      <point x="155" y="672"/>
      <point x="105" y="586"/>
      <point x="40" y="538" type="curve"/>
      <point x="34" y="499"/>
      <point x="15" y="404"/>
      <point x="102" y="365" type="curve"/>
      <point x="135" y="383"/>
      <point x="170" y="419"/>
      <point x="184" y="454" type="curve"/>
      <point x="144" y="482"/>
      <point x="110" y="518"/>
      <point x="120" y="575" type="curve"/>
      <point x="270" y="545"/>
      <point x="417" y="542"/>
      <point x="481" y="587" type="curve"/>
      <point x="468" y="596" type="line"/>
      <point x="464" y="569"/>
      <point x="449" y="521"/>
      <point x="446" y="462" type="curve"/>
      <point x="442" y="380"/>
      <point x="451" y="274"/>
      <point x="448" y="202" type="curve"/>
      <point x="444" y="121"/>
      <point x="374" y="69"/>
    </contour>
    <contour>
      <point x="648" y="766" type="curve"/>
      <point x="608" y="768" type="line"/>
      <point x="606" y="108" type="line"/>
      <point x="636" y="108" type="line"/>
      <point x="638" y="327"/>
      <point x="642" y="547"/>
    </contour>
    <contour>
      <point x="615" y="0" type="move" name="bottom"/>
    </contour>
    <contour>
      <point x="1106" y="10" type="move" name="ogonek"/>
    </contour>
    <contour>
      <point x="615" y="700" type="move" name="top"/>
    </contour>
    <contour>
      <point x="1209" y="700" type="move" name="topright"/>
    </contour>
  </outline>
</glyph>
<glyph name="b_e" format="1">
  <advance width="750"/>
  <outline>
    <component base="b"/>
    <component base="e" xOffset="349"/>
    <contour>
      <point x="182" y="0" type="move" name="bottom_1"/>
    </contour>
    <contour>
      <point x="545" y="0" type="move" name="bottom_2"/>
    </contour>
    <contour>
      <point x="363" y="0" type="move" name="caret_1"/>
    </contour>
    <contour>
      <point x="182" y="430" type="move" name="top_1"/>
    </contour>
    <contour>
      <point x="545" y="430" type="move" name="top_2"/>
    </contour>
  </outline>
</glyph>
<glyph name="c_e_macr" format="1">
  <advance width="719"/>
  <outline>
    <contour>
      <point x="394" y="570" type="curve"/>
      <point x="424" y="561" type="line"/>
      <point x="468" y="592"/>
      <point x="516" y="579"/>
      <point x="622" y="583" type="curve"/>
      <point x="639" y="604"/>
      <point x="661" y="647"/>
      <point x="684" y="681" type="curve"/>
      <point x="650" y="688" type="line"/>
      <point x="634" y="681"/>
      <point x="619" y="678"/>
      <point x="593" y="676" type="curve"/>
      <point x="566" y="674"/>
      <point x="489" y="674"/>
      <point x="461" y="672" type="curve"/>
      <point x="444" y="651"/>
      <point x="422" y="604"/>
    </contour>
    <component base="c_e"/>
    <contour>
      <point x="120" y="0" type="move" name="bottom_1"/>
    </contour>
    <contour>
      <point x="360" y="0" type="move" name="bottom_2"/>
    </contour>
    <contour>
      <point x="599" y="0" type="move" name="bottom_3"/>
    </contour>
    <contour>
      <point x="239.667" y="0" type="move" name="caret_1"/>
    </contour>
    <contour>
      <point x="479.333" y="0" type="move" name="caret_2"/>
    </contour>
    <contour>
      <point x="120" y="430" type="move" name="top_1"/>
    </contour>
    <contour>
      <point x="360" y="430" type="move" name="top_2"/>
    </contour>
    <contour>
      <point x="599" y="430" type="move" name="top_3"/>
    </contour>
  </outline>
</glyph>
<glyph name="c_hook" format="1">
  <advance width="383"/>
  <outline>
    <contour>
      <point x="188" y="500" type="curve"/>
      <point x="210" y="480" type="line"/>
      <point x="276" y="550"/>
      <point x="368" y="629"/>
      <point x="368" y="643" type="curve"/>
      <point x="368" y="685"/>
      <point x="344" y="717"/>
      <point x="286" y="725" type="curve"/>
      <point x="280" y="725" type="line"/>
      <point x="197" y="668" type="line"/>
      <point x="197" y="663" type="line"/>
      <point x="231" y="646"/>
      <point x="262" y="636"/>
      <point x="262" y="599" type="curve"/>
      <point x="262" y="565"/>
      <point x="216" y="528"/>
    </contour>
    <component base="c"/>
    <contour>
      <point x="171" y="0" type="move" name="bottom"/>
    </contour>
    <contour>
      <point x="171" y="430" type="move" name="top"/>
    </contour>
  </outline>
</glyph>
<glyph name="c_macr" format="1">
  <advance width="396"/>
  <outline>
    <contour>
      <point x="66" y="577" type="curve"/>
      <point x="96" y="568" type="line"/>
      <point x="114" y="581"/>
      <point x="150" y="597"/>
      <point x="176" y="598" type="curve"/>
      <point x="203" y="599"/>
      <point x="273" y="598"/>
      <point x="302" y="600" type="curve"/>
      <point x="317" y="611"/>
      <point x="354" y="664"/>
      <point x="381" y="698" type="curve"/>
      <point x="347" y="705" type="line"/>
      <point x="331" y="698"/>
      <point x="316" y="695"/>
      <point x="290" y="693" type="curve"/>
      <point x="263" y="691"/>
      <point x="196" y="691"/>
      <point x="168" y="689" type="curve"/>
      <point x="154" y="678"/>
      <point x="94" y="611"/>
    </contour>
    <component base="c"/>
    <contour>
      <point x="189" y="0" type="move" name="bottom"/>
    </contour>
    <contour>
      <point x="189" y="430" type="move" name="top"/>
    </contour>
  </outline>
</glyph>
<glyph name="c_o" format="1">
  <advance width="748"/>
  <outline>
    <contour>
      <point x="495" y="-21" type="curve"/>
      <point x="534" y="-21"/>
      <point x="657" y="64"/>
      <point x="692" y="100" type="curve"/>
      <point x="722" y="131"/>
      <point x="733" y="194"/>
      <point x="733" y="230" type="curve"/>
      <point x="733" y="361"/>
      <point x="625" y="450"/>
      <point x="561" y="450" type="curve"/>
      <point x="524" y="450"/>
      <point x="399" y="361"/>
      <point x="371" y="340" type="curve"/>
      <point x="344" y="319"/>
      <point x="320" y="253"/>
      <point x="320" y="195" type="curve"/>
      <point x="320" y="80"/>
      <point x="402" y="-21"/>
    </contour>
    <contour>
      <point x="170" y="-20" type="curve"/>
      <point x="195" y="-20"/>
      <point x="307" y="43"/>
      <point x="366" y="83" type="curve"/>
      <point x="366" y="113" type="line"/>
      <point x="332" y="97"/>
      <point x="303" y="74"/>
      <point x="245" y="74" type="curve"/>
      <point x="173" y="74"/>
      <point x="154" y="165"/>
      <point x="154" y="225" type="curve"/>
      <point x="154" y="292"/>
      <point x="178" y="340"/>
      <point x="189" y="360" type="curve"/>
      <point x="244" y="354"/>
      <point x="289" y="307"/>
      <point x="295" y="307" type="curve"/>
      <point x="300" y="307"/>
      <point x="386" y="340"/>
      <point x="442" y="361" type="curve"/>
      <point x="442" y="376" type="line"/>
      <point x="344" y="384"/>
      <point x="289" y="451"/>
      <point x="273" y="451" type="curve"/>
      <point x="251" y="451"/>
      <point x="93" y="357"/>
      <point x="75" y="341" type="curve"/>
      <point x="62" y="330"/>
      <point x="35" y="238"/>
      <point x="35" y="125" type="curve"/>
      <point x="35" y="91"/>
      <point x="119" y="-20"/>
    </contour>
    <contour>
      <point x="577" y="68" type="curve"/>
      <point x="554" y="60"/>
      <point x="422" y="90"/>
      <point x="422" y="247" type="curve"/>
      <point x="422" y="311"/>
      <point x="455" y="351"/>
      <point x="478" y="355" type="curve"/>
      <point x="524" y="362"/>
      <point x="622" y="318"/>
      <point x="622" y="183" type="curve"/>
      <point x="622" y="124"/>
      <point x="599" y="76"/>
    </contour>
    <contour>
      <point x="200" y="0" type="move" name="bottom_1"/>
    </contour>
    <contour>
      <point x="569" y="0" type="move" name="bottom_2"/>
    </contour>
    <contour>
      <point x="384" y="0" type="move" name="caret_1"/>
    </contour>
    <contour>
      <point x="200" y="430" type="move" name="top_1"/>
    </contour>
    <contour>
      <point x="569" y="430" type="move" name="top_2"/>
    </contour>
  </outline>
</glyph>
<glyph name="c_u_macr" format="1">
  <advance width="748"/>
  <outline>
    <contour>
      <point x="377" y="587" type="curve"/>
      <point x="407" y="578" type="line"/>
      <point x="451" y="609"/>
      <point x="499" y="596"/>
      <point x="622" y="600" type="curve"/>
      <point x="639" y="621"/>
      <point x="661" y="664"/>
      <point x="684" y="698" type="curve"/>
      <point x="650" y="705" type="line"/>
      <point x="634" y="698"/>
      <point x="619" y="695"/>
      <point x="593" y="693" type="curve"/>
      <point x="566" y="691"/>
      <point x="472" y="691"/>
      <point x="444" y="689" type="curve"/>
      <point x="427" y="668"/>
      <point x="405" y="621"/>
    </contour>
    <component base="c_u"/>
    <contour>
      <point x="125" y="0" type="move" name="bottom_1"/>
    </contour>
    <contour>
      <point x="374" y="0" type="move" name="bottom_2"/>
    </contour>
    <contour>
      <point x="623" y="0" type="move" name="bottom_3"/>
    </contour>
    <contour>
      <point x="249.333" y="0" type="move" name="caret_1"/>
    </contour>
    <contour>
      <point x="498.667" y="0" type="move" name="caret_2"/>
    </contour>
    <contour>
      <point x="125" y="430" type="move" name="top_1"/>
    </contour>
    <contour>
      <point x="374" y="430" type="move" name="top_2"/>
    </contour>
    <contour>
      <point x="623" y="430" type="move" name="top_3"/>
    </contour>
  </outline>
</glyph>
<glyph name="d_e" format="1">
  <advance width="764"/>
  <outline>
    <contour>
      <point x="255" y="-19" type="curve"/>
      <point x="274" y="-19"/>
      <point x="426" y="80"/>
      <point x="461" y="130" type="curve"/>
      <point x="486" y="166"/>
      <point x="499" y="370"/>
      <point x="479" y="386" type="curve"/>
      <point x="454" y="406"/>
      <point x="148" y="496"/>
      <point x="148" y="546" type="curve"/>
      <point x="148" y="553"/>
      <point x="148" y="562"/>
      <point x="202" y="597" type="curve"/>
      <point x="185" y="615" type="line"/>
      <point x="122" y="582"/>
      <point x="20" y="549"/>
      <point x="20" y="510" type="curve"/>
      <point x="20" y="405"/>
      <point x="328" y="365"/>
      <point x="364" y="316" type="curve"/>
      <point x="394" y="275"/>
      <point x="366" y="83"/>
      <point x="308" y="83" type="curve"/>
      <point x="218" y="83"/>
      <point x="178" y="154"/>
      <point x="178" y="240" type="curve"/>
      <point x="178" y="310"/>
      <point x="208" y="347"/>
      <point x="245" y="375" type="curve"/>
      <point x="204" y="390" type="line"/>
      <point x="136" y="337"/>
      <point x="42" y="283"/>
      <point x="42" y="261" type="curve"/>
      <point x="42" y="96"/>
      <point x="125" y="-19"/>
    </contour>
    <component base="e" xOffset="363"/>
    <contour>
      <point x="185" y="0" type="move" name="bottom_1"/>
    </contour>
    <contour>
      <point x="555" y="0" type="move" name="bottom_2"/>
    </contour>
    <contour>
      <point x="370" y="0" type="move" name="caret_1"/>
    </contour>
    <contour>
      <point x="0" y="0" type="move" name="center_1"/>
    </contour>
    <contour>
      <point x="0" y="0" type="move" name="center_2"/>
    </contour>
    <contour>
      <point x="185" y="430" type="move" name="top_1"/>
    </contour>
    <contour>
      <point x="555" y="430" type="move" name="top_2"/>
    </contour>
    <contour>
      <point x="0" y="0" type="move" name="topright_1"/>
    </contour>
    <contour>
      <point x="0" y="0" type="move" name="topright_2"/>
    </contour>
  </outline>
</glyph>
<glyph name="e_c" format="1">
  <advance width="700"/>
  <outline>
    <contour>
      <point x="188" y="-20" type="curve"/>
      <point x="224" y="-20"/>
      <point x="349" y="56"/>
      <point x="400" y="82" type="curve"/>
      <point x="397" y="112" type="line"/>
      <point x="369" y="99"/>
      <point x="320" y="73"/>
      <point x="277" y="74" type="curve"/>
      <point x="165" y="77"/>
      <point x="150" y="163"/>
      <point x="150" y="253" type="curve"/>
      <point x="150" y="296"/>
      <point x="155" y="367"/>
      <point x="182" y="367" type="curve"/>
      <point x="228" y="367"/>
      <point x="252" y="306"/>
      <point x="252" y="282" type="curve"/>
      <point x="252" y="228"/>
      <point x="189" y="180"/>
      <point x="133" y="150" type="curve"/>
      <point x="138" y="103" type="line"/>
      <point x="208" y="155"/>
      <point x="364" y="312"/>
      <point x="364" y="326" type="curve"/>
      <point x="364" y="346"/>
      <point x="293" y="450"/>
      <point x="262" y="450" type="curve"/>
      <point x="234" y="450"/>
      <point x="89" y="372"/>
      <point x="68" y="352" type="curve"/>
      <point x="51" y="336"/>
      <point x="30" y="274"/>
      <point x="30" y="172" type="curve"/>
      <point x="30" y="73"/>
      <point x="89" y="-20"/>
    </contour>
    <contour>
      <point x="503" y="-20" type="curve"/>
      <point x="528" y="-20"/>
      <point x="620" y="38"/>
      <point x="679" y="78" type="curve"/>
      <point x="679" y="103" type="line"/>
      <point x="645" y="97"/>
      <point x="582" y="82"/>
      <point x="546" y="97" type="curve"/>
      <point x="507" y="113"/>
      <point x="493" y="172"/>
      <point x="493" y="272" type="curve"/>
      <point x="493" y="299"/>
      <point x="498" y="340"/>
      <point x="502" y="360" type="curve"/>
      <point x="547" y="354"/>
      <point x="572" y="317"/>
      <point x="578" y="317" type="curve"/>
      <point x="583" y="317"/>
      <point x="649" y="360"/>
      <point x="685" y="381" type="curve"/>
      <point x="685" y="396" type="line"/>
      <point x="610" y="410"/>
      <point x="602" y="451"/>
      <point x="586" y="451" type="curve"/>
      <point x="564" y="451"/>
      <point x="417" y="356"/>
      <point x="398" y="341" type="curve"/>
      <point x="385" y="330"/>
      <point x="368" y="190"/>
      <point x="368" y="91" type="curve"/>
      <point x="368" y="57"/>
      <point x="452" y="-20"/>
    </contour>
    <contour>
      <point x="188" y="0" type="move" name="bottom_1"/>
    </contour>
    <contour>
      <point x="523" y="0" type="move" name="bottom_2"/>
    </contour>
    <contour>
      <point x="355" y="0" type="move" name="caret_1"/>
    </contour>
    <contour>
      <point x="20" y="0" type="move" name="ogonek_1"/>
    </contour>
    <contour>
      <point x="20" y="0" type="move" name="ogonek_2"/>
    </contour>
    <contour>
      <point x="188" y="430" type="move" name="top_1"/>
    </contour>
    <contour>
      <point x="523" y="430" type="move" name="top_2"/>
    </contour>
  </outline>
</glyph>
<glyph name="e_hook" format="1">
  <advance width="377"/>
  <outline>
    <contour>
      <point x="170" y="513" type="curve"/>
      <point x="194" y="491" type="line"/>
      <point x="303" y="555"/>
      <point x="390" y="599"/>
      <point x="390" y="664" type="curve"/>
      <point x="390" y="701"/>
      <point x="360" y="734"/>
      <point x="305" y="751" type="curve"/>
      <point x="299" y="751" type="line"/>
      <point x="191" y="711" type="line"/>
      <point x="191" y="706" type="line"/>
      <point x="245" y="689"/>
      <point x="268" y="659"/>
      <point x="268" y="620" type="curve"/>
      <point x="268" y="584"/>
      <point x="230" y="542"/>
    </contour>
    <component base="e"/>
    <contour>
      <point x="189" y="0" type="move" name="bottom"/>
    </contour>
    <contour>
      <point x="339" y="10" type="move" name="ogonek"/>
    </contour>
    <contour>
      <point x="189" y="430" type="move" name="top"/>
    </contour>
  </outline>
</glyph>
<glyph name="f_e" format="1">
  <advance width="639"/>
  <outline>
    <contour>
      <point x="66" y="279" type="curve"/>
      <point x="66" y="-17" type="line"/>
      <point x="72" y="-20" type="line"/>
      <point x="178" y="9" type="line"/>
      <point x="178" y="321" type="line"/>
      <point x="304" y="321" type="line"/>
      <point x="411" y="408" type="line"/>
      <point x="178" y="408" type="line"/>
      <point x="178" y="410"/>
      <point x="178" y="586"/>
      <point x="178" y="600" type="curve"/>
      <point x="192" y="610"/>
      <point x="207" y="612"/>
      <point x="221" y="612" type="curve"/>
      <point x="248" y="612"/>
      <point x="281" y="590"/>
      <point x="307" y="561" type="curve"/>
      <point x="315" y="562" type="line"/>
      <point x="394" y="640" type="line"/>
      <point x="394" y="646" type="line"/>
      <point x="352" y="681"/>
      <point x="287" y="699"/>
      <point x="251" y="699" type="curve"/>
      <point x="242" y="699"/>
      <point x="107" y="610"/>
      <point x="77" y="589" type="curve"/>
      <point x="63" y="579"/>
      <point x="62" y="578"/>
      <point x="64" y="562" type="curve"/>
      <point x="74" y="482"/>
      <point x="53" y="421"/>
      <point x="20" y="357" type="curve"/>
      <point x="20" y="350" type="line"/>
      <point x="43" y="333"/>
      <point x="66" y="323"/>
    </contour>
    <component base="e" xOffset="238"/>
    <contour>
      <point x="169" y="0" type="move" name="bottom_1"/>
    </contour>
    <contour>
      <point x="466" y="0" type="move" name="bottom_2"/>
    </contour>
    <contour>
      <point x="318" y="0" type="move" name="caret_1"/>
    </contour>
    <contour>
      <point x="169" y="430" type="move" name="top_1"/>
    </contour>
    <contour>
      <point x="466" y="430" type="move" name="top_2"/>
    </contour>
  </outline>
</glyph>
<glyph name="g.ss01" format="1">
  <advance width="585"/>
  <outline>
    <contour>
      <point x="183" y="-240" type="curve"/>
      <point x="281" y="-240"/>
      <point x="484" y="-186"/>
      <point x="484" y="-79" type="curve"/>
      <point x="484" y="8"/>
      <point x="417" y="44"/>
      <point x="417" y="163" type="curve"/>
      <point x="417" y="235"/>
      <point x="439" y="307"/>
      <point x="569" y="303" type="curve"/>
      <point x="585" y="391" type="line"/>
      <point x="492" y="401"/>
      <point x="308" y="440"/>
      <point x="289" y="450" type="curve"/>
      <point x="276" y="450"/>
      <point x="152" y="382"/>
      <point x="85" y="339" type="curve"/>
      <point x="47" y="295"/>
      <point x="30" y="249"/>
      <point x="30" y="196" type="curve"/>
      <point x="30" y="88"/>
      <point x="71" y="35"/>
      <point x="130" y="-5" type="curve"/>
      <point x="179" y="39"/>
      <point x="255" y="98"/>
      <point x="304" y="112" type="curve"/>
      <point x="301" y="148" type="line"/>
      <point x="281" y="132"/>
      <point x="244" y="115"/>
      <point x="219" y="115" type="curve"/>
      <point x="138" y="115"/>
      <point x="124" y="225"/>
      <point x="159" y="301" type="curve"/>
      <point x="214" y="339"/>
      <point x="313" y="333"/>
      <point x="436" y="311" type="curve"/>
      <point x="377" y="274"/>
      <point x="295" y="236"/>
      <point x="295" y="140" type="curve"/>
      <point x="295" y="64"/>
      <point x="376" y="-33"/>
      <point x="376" y="-101" type="curve"/>
      <point x="376" y="-164"/>
      <point x="324" y="-184"/>
      <point x="285" y="-184" type="curve"/>
      <point x="166" y="-184"/>
      <point x="130" y="-34"/>
      <point x="142" y="11" type="curve"/>
      <point x="133" y="11"/>
      <point x="49" y="-46"/>
      <point x="19" y="-69" type="curve"/>
      <point x="28" y="-180"/>
      <point x="110" y="-220"/>
    </contour>
    <contour>
      <point x="293" y="0" type="move" name="bottom"/>
    </contour>
    <contour>
      <point x="293" y="430" type="move" name="top"/>
    </contour>
  </outline>
</glyph>
<glyph name="g.ss02" format="1">
  <advance width="629"/>
  <outline>
    <contour>
      <point x="280" y="-240" type="curve"/>
      <point x="401" y="-240"/>
      <point x="519" y="-177"/>
      <point x="519" y="-74" type="curve"/>
      <point x="519" y="9"/>
      <point x="473" y="38"/>
      <point x="435" y="57" type="curve"/>
      <point x="325" y="-6" type="line"/>
      <point x="325" y="-10" type="line"/>
      <point x="372" y="-32"/>
      <point x="391" y="-74"/>
      <point x="391" y="-105" type="curve"/>
      <point x="391" y="-162"/>
      <point x="340" y="-201"/>
      <point x="283" y="-201" type="curve"/>
      <point x="211" y="-201"/>
      <point x="177" y="-160"/>
      <point x="177" y="-100" type="curve"/>
      <point x="177" y="-12"/>
      <point x="300" y="24"/>
      <point x="381" y="80" type="curve"/>
      <point x="442" y="122"/>
      <point x="472" y="189"/>
      <point x="480" y="272" type="curve"/>
      <point x="482" y="293"/>
      <point x="484" y="302"/>
      <point x="491" y="302" type="curve"/>
      <point x="613" y="297" type="line"/>
      <point x="619" y="321"/>
      <point x="627" y="361"/>
      <point x="629" y="397" type="curve"/>
      <point x="584" y="400"/>
      <point x="477" y="407"/>
      <point x="449" y="411" type="curve"/>
      <point x="414" y="416"/>
      <point x="353" y="461"/>
      <point x="340" y="461" type="curve"/>
      <point x="326" y="461"/>
      <point x="234" y="437"/>
      <point x="145" y="401" type="curve"/>
      <point x="108" y="386"/>
      <point x="42" y="309"/>
      <point x="42" y="242" type="curve"/>
      <point x="42" y="185"/>
      <point x="67" y="154"/>
      <point x="80" y="136" type="curve"/>
      <point x="89" y="123"/>
      <point x="138" y="85"/>
      <point x="207" y="89" type="curve"/>
      <point x="122" y="42"/>
      <point x="50" y="-7"/>
      <point x="50" y="-73" type="curve"/>
      <point x="50" y="-190"/>
      <point x="138" y="-240"/>
    </contour>
    <contour>
      <point x="283" y="134" type="curve"/>
      <point x="221" y="134"/>
      <point x="162" y="179"/>
      <point x="162" y="259" type="curve"/>
      <point x="162" y="310"/>
      <point x="185" y="349"/>
      <point x="233" y="377" type="curve"/>
      <point x="263" y="377"/>
      <point x="359" y="350"/>
      <point x="359" y="261" type="curve"/>
      <point x="359" y="196"/>
      <point x="325" y="160"/>
    </contour>
    <contour>
      <point x="315" y="0" type="move" name="bottom"/>
    </contour>
    <contour>
      <point x="315" y="430" type="move" name="top"/>
    </contour>
  </outline>
</glyph>
<glyph name="g.ss03" format="1">
  <advance width="600"/>
  <outline>
    <contour>
      <point x="159" y="301" type="curve"/>
      <point x="236" y="384"/>
      <point x="446" y="315"/>
      <point x="617" y="310" type="curve"/>
      <point x="641" y="429" type="line"/>
      <point x="621" y="435" type="line"/>
      <point x="570" y="411"/>
      <point x="308" y="440"/>
      <point x="289" y="450" type="curve"/>
      <point x="276" y="450"/>
      <point x="152" y="382"/>
      <point x="85" y="339" type="curve"/>
      <point x="47" y="295"/>
      <point x="30" y="249"/>
      <point x="30" y="196" type="curve"/>
      <point x="30" y="88"/>
      <point x="71" y="35"/>
      <point x="130" y="-5" type="curve"/>
      <point x="179" y="39"/>
      <point x="255" y="98"/>
      <point x="304" y="112" type="curve"/>
      <point x="301" y="155" type="line"/>
      <point x="281" y="139"/>
      <point x="244" y="115"/>
      <point x="219" y="115" type="curve"/>
      <point x="138" y="115"/>
      <point x="124" y="225"/>
    </contour>
    <contour>
      <point x="494" y="325" type="curve"/>
      <point x="440" y="336" type="line"/>
      <point x="381" y="297"/>
      <point x="295" y="241"/>
      <point x="295" y="140" type="curve"/>
      <point x="295" y="64"/>
      <point x="376" y="-33"/>
      <point x="376" y="-101" type="curve"/>
      <point x="376" y="-164"/>
      <point x="324" y="-184"/>
      <point x="285" y="-184" type="curve"/>
      <point x="166" y="-184"/>
      <point x="130" y="-34"/>
      <point x="142" y="11" type="curve"/>
      <point x="133" y="11"/>
      <point x="49" y="-46"/>
      <point x="19" y="-69" type="curve"/>
      <point x="28" y="-180"/>
      <point x="110" y="-220"/>
      <point x="183" y="-240" type="curve"/>
      <point x="281" y="-240"/>
      <point x="484" y="-186"/>
      <point x="484" y="-79" type="curve"/>
      <point x="484" y="8"/>
      <point x="410" y="87"/>
      <point x="410" y="206" type="curve"/>
      <point x="410" y="268"/>
      <point x="436" y="303"/>
    </contour>
  </outline>
</glyph>
<glyph name="g_hook" format="1">
  <advance width="585"/>
  <outline>
    <contour>
      <point x="179" y="536" type="curve"/>
      <point x="204" y="525" type="line"/>
      <point x="220" y="537"/>
      <point x="251" y="550"/>
      <point x="273" y="550" type="curve"/>
      <point x="296" y="550"/>
      <point x="355" y="543"/>
      <point x="379" y="543" type="curve"/>
      <point x="392" y="543"/>
      <point x="427" y="604"/>
      <point x="452" y="636" type="curve"/>
      <point x="424" y="645" type="line"/>
      <point x="410" y="639"/>
      <point x="397" y="637"/>
      <point x="375" y="637" type="curve"/>
      <point x="352" y="637"/>
      <point x="296" y="641"/>
      <point x="272" y="641" type="curve"/>
      <point x="260" y="641"/>
      <point x="205" y="568"/>
    </contour>
    <component base="g"/>
    <contour>
      <point x="293" y="0" type="move" name="bottom"/>
    </contour>
    <contour>
      <point x="293" y="430" type="move" name="top"/>
    </contour>
  </outline>
</glyph>
<glyph name="g_l_strok" format="1">
  <advance width="803"/>
  <outline>
    <contour>
      <point x="613" y="391" type="curve"/>
      <point x="637" y="369" type="line"/>
      <point x="716" y="413"/>
      <point x="902" y="551"/>
      <point x="902" y="585" type="curve"/>
      <point x="902" y="599"/>
      <point x="893" y="645"/>
      <point x="837" y="672" type="curve"/>
      <point x="831" y="672" type="line"/>
      <point x="723" y="622" type="line"/>
      <point x="723" y="617" type="line"/>
      <point x="758" y="600"/>
      <point x="780" y="580"/>
      <point x="780" y="541" type="curve"/>
      <point x="780" y="477"/>
      <point x="643" y="420"/>
    </contour>
    <component base="g.ss01"/>
    <component base="l" xOffset="515"/>
    <contour>
      <point x="134" y="0" type="move" name="bottom_1"/>
    </contour>
    <contour>
      <point x="402" y="0" type="move" name="bottom_2"/>
    </contour>
    <contour>
      <point x="669" y="0" type="move" name="bottom_3"/>
    </contour>
    <contour>
      <point x="267.667" y="0" type="move" name="caret_1"/>
    </contour>
    <contour>
      <point x="535.333" y="0" type="move" name="caret_2"/>
    </contour>
    <contour>
      <point x="134" y="430" type="move" name="top_1"/>
    </contour>
    <contour>
      <point x="402" y="430" type="move" name="top_2"/>
    </contour>
    <contour>
      <point x="669" y="430" type="move" name="top_3"/>
    </contour>
  </outline>
</glyph>
<glyph name="h_e_macr" format="1">
  <advance width="821"/>
  <outline>
    <contour>
      <point x="498" y="536" type="curve"/>
      <point x="523" y="525" type="line"/>
      <point x="539" y="537"/>
      <point x="570" y="550"/>
      <point x="592" y="550" type="curve"/>
      <point x="615" y="550"/>
      <point x="674" y="543"/>
      <point x="698" y="543" type="curve"/>
      <point x="711" y="543"/>
      <point x="746" y="604"/>
      <point x="771" y="636" type="curve"/>
      <point x="743" y="645" type="line"/>
      <point x="729" y="639"/>
      <point x="716" y="637"/>
      <point x="694" y="637" type="curve"/>
      <point x="671" y="637"/>
      <point x="615" y="641"/>
      <point x="591" y="641" type="curve"/>
      <point x="579" y="641"/>
      <point x="524" y="568"/>
    </contour>
    <component base="e" xOffset="420"/>
    <component base="h"/>
    <contour>
      <point x="133" y="0" type="move" name="bottom_1"/>
    </contour>
    <contour>
      <point x="399" y="0" type="move" name="bottom_2"/>
    </contour>
    <contour>
      <point x="664" y="0" type="move" name="bottom_3"/>
    </contour>
    <contour>
      <point x="265.667" y="0" type="move" name="caret_1"/>
    </contour>
    <contour>
      <point x="531.333" y="0" type="move" name="caret_2"/>
    </contour>
    <contour>
      <point x="0" y="0" type="move" name="center_1"/>
    </contour>
    <contour>
      <point x="0" y="0" type="move" name="center_2"/>
    </contour>
    <contour>
      <point x="0" y="0" type="move" name="center_3"/>
    </contour>
    <contour>
      <point x="133" y="430" type="move" name="top_1"/>
    </contour>
    <contour>
      <point x="399" y="430" type="move" name="top_2"/>
    </contour>
    <contour>
      <point x="664" y="430" type="move" name="top_3"/>
    </contour>
  </outline>
</glyph>
<glyph name="h_o" format="1">
  <advance width="871"/>
  <outline>
    <component base="h"/>
    <component base="o" xOffset="418"/>
    <contour>
      <point x="218" y="0" type="move" name="bottom_1"/>
    </contour>
    <contour>
      <point x="653" y="0" type="move" name="bottom_2"/>
    </contour>
    <contour>
      <point x="435.5" y="0" type="move" name="caret_1"/>
    </contour>
    <contour>
      <point x="0" y="0" type="move" name="center_1"/>
    </contour>
    <contour>
      <point x="0" y="0" type="move" name="center_2"/>
    </contour>
    <contour>
      <point x="218" y="430" type="move" name="top_1"/>
    </contour>
    <contour>
      <point x="653" y="430" type="move" name="top_2"/>
    </contour>
  </outline>
</glyph>
<glyph name="i_u" format="1">
  <advance width="685"/>
  <outline>
    <contour>
      <point x="134" y="-20" type="curve"/>
      <point x="167" y="-20"/>
      <point x="273" y="50"/>
      <point x="301" y="69" type="curve"/>
      <point x="301" y="114" type="line"/>
      <point x="286" y="101"/>
      <point x="245" y="67"/>
      <point x="218" y="67" type="curve"/>
      <point x="190" y="67"/>
      <point x="177" y="87"/>
      <point x="176" y="116" type="curve"/>
      <point x="175" y="177"/>
      <point x="176" y="263"/>
      <point x="176" y="332" type="curve"/>
      <point x="176" y="418"/>
      <point x="130" y="464"/>
      <point x="62" y="445" type="curve"/>
      <point x="0" y="362" type="line"/>
      <point x="0" y="342" type="line"/>
      <point x="30" y="334"/>
      <point x="58" y="331"/>
      <point x="60" y="282" type="curve"/>
      <point x="62" y="200"/>
      <point x="64" y="148"/>
      <point x="62" y="65" type="curve"/>
      <point x="60" y="12"/>
      <point x="90" y="-20"/>
    </contour>
    <contour>
      <point x="140" y="732" type="line"/>
      <point x="94" y="588" type="line"/>
      <point x="101" y="550" type="line"/>
      <point x="104" y="550" type="line"/>
      <point x="181" y="714" type="line"/>
      <point x="181" y="717" type="line"/>
      <point x="143" y="733" type="line"/>
    </contour>
    <component base="u" xOffset="221"/>
    <contour>
      <point x="171" y="0" type="move" name="bottom_1"/>
    </contour>
    <contour>
      <point x="514" y="0" type="move" name="bottom_2"/>
    </contour>
    <contour>
      <point x="342.5" y="0" type="move" name="caret_1"/>
    </contour>
  </outline>
</glyph>
<glyph name="l_l" format="1">
  <advance width="434"/>
  <outline>
    <contour>
      <point x="145" y="-19" type="curve"/>
      <point x="178" y="-19"/>
      <point x="268" y="58"/>
      <point x="296" y="77" type="curve"/>
      <point x="296" y="114" type="line"/>
      <point x="280" y="102"/>
      <point x="240" y="68"/>
      <point x="214" y="68" type="curve"/>
      <point x="186" y="68"/>
      <point x="166" y="88"/>
      <point x="165" y="112" type="curve"/>
      <point x="156" y="316"/>
      <point x="158" y="501"/>
      <point x="165" y="718" type="curve"/>
      <point x="157" y="720" type="line"/>
      <point x="45" y="666" type="line"/>
      <point x="59" y="582"/>
      <point x="58" y="125"/>
      <point x="55" y="55" type="curve"/>
      <point x="54" y="32"/>
      <point x="121" y="-19"/>
    </contour>
    <contour>
      <point x="333" y="-19" type="curve"/>
      <point x="346" y="-19"/>
      <point x="396" y="18"/>
      <point x="424" y="43" type="curve"/>
      <point x="424" y="65" type="line"/>
      <point x="390" y="68"/>
      <point x="376" y="83"/>
      <point x="375" y="103" type="curve"/>
      <point x="369" y="307"/>
      <point x="372" y="501"/>
      <point x="379" y="718" type="curve"/>
      <point x="371" y="720" type="line"/>
      <point x="255" y="666" type="line"/>
      <point x="269" y="582"/>
      <point x="273" y="136"/>
      <point x="263" y="66" type="curve"/>
      <point x="260" y="43"/>
      <point x="309" y="-19"/>
    </contour>
    <contour>
      <point x="135" y="0" type="move" name="bottom_1"/>
    </contour>
    <contour>
      <point x="334" y="0" type="move" name="bottom_2"/>
    </contour>
    <contour>
      <point x="235" y="0" type="move" name="caret_1"/>
    </contour>
    <contour>
      <point x="35" y="0" type="move" name="center_1"/>
    </contour>
    <contour>
      <point x="35" y="0" type="move" name="center_2"/>
    </contour>
    <contour>
      <point x="135" y="430" type="move" name="top_1"/>
    </contour>
    <contour>
      <point x="334" y="430" type="move" name="top_2"/>
    </contour>
    <contour>
      <point x="35" y="0" type="move" name="topright_1"/>
    </contour>
    <contour>
      <point x="35" y="0" type="move" name="topright_2"/>
    </contour>
  </outline>
</glyph>
<glyph name="longs_b_strok" format="1">
  <advance width="701"/>
  <outline>
    <contour>
      <point x="354" y="420" type="curve"/>
      <point x="378" y="398" type="line"/>
      <point x="457" y="462"/>
      <point x="643" y="610"/>
      <point x="643" y="624" type="curve"/>
      <point x="643" y="638"/>
      <point x="614" y="684"/>
      <point x="578" y="721" type="curve"/>
      <point x="572" y="721" type="line"/>
      <point x="464" y="661" type="line"/>
      <point x="464" y="656" type="line"/>
      <point x="489" y="639"/>
      <point x="521" y="619"/>
      <point x="521" y="580" type="curve"/>
      <point x="521" y="544"/>
      <point x="384" y="449"/>
    </contour>
    <component base="longs"/>
    <component base="b" xOffset="213"/>
    <contour>
      <point x="121" y="0" type="move" name="bottom_1"/>
    </contour>
    <contour>
      <point x="363" y="0" type="move" name="bottom_2"/>
    </contour>
    <contour>
      <point x="605" y="0" type="move" name="bottom_3"/>
    </contour>
    <contour>
      <point x="242" y="0" type="move" name="caret_1"/>
    </contour>
    <contour>
      <point x="484" y="0" type="move" name="caret_2"/>
    </contour>
    <contour>
      <point x="121" y="430" type="move" name="top_1"/>
    </contour>
    <contour>
      <point x="363" y="430" type="move" name="top_2"/>
    </contour>
    <contour>
      <point x="605" y="430" type="move" name="top_3"/>
    </contour>
  </outline>
</glyph>
<glyph name="longs_etfin" format="1">
  <advance width="419"/>
  <outline>
    <contour>
      <point x="160" y="-195" type="curve"/>
      <point x="215" y="-176"/>
      <point x="414" y="-16"/>
      <point x="414" y="106" type="curve"/>
      <point x="414" y="178"/>
      <point x="343" y="222"/>
      <point x="296" y="259" type="curve"/>
      <point x="270" y="199" type="line"/>
      <point x="296" y="260"/>
      <point x="363" y="299"/>
      <point x="391" y="327" type="curve"/>
      <point x="391" y="385"/>
      <point x="348" y="435"/>
      <point x="293" y="451" type="curve"/>
      <point x="272" y="451"/>
      <point x="204" y="411"/>
      <point x="164" y="374" type="curve"/>
      <point x="178" y="355" type="line"/>
      <point x="203" y="380"/>
      <point x="289" y="366"/>
      <point x="289" y="305" type="curve"/>
      <point x="289" y="239"/>
      <point x="228" y="225"/>
      <point x="161" y="178" type="curve"/>
      <point x="180" y="161" type="line"/>
      <point x="235" y="185"/>
      <point x="312" y="122"/>
      <point x="312" y="45" type="curve"/>
      <point x="312" y="-49"/>
      <point x="243" y="-108"/>
      <point x="212" y="-108" type="curve"/>
      <point x="185" y="-108"/>
      <point x="163" y="-68"/>
      <point x="157" y="-68" type="curve"/>
      <point x="124" y="-85"/>
      <point x="93" y="-103"/>
      <point x="93" y="-115" type="curve"/>
      <point x="101" y="-143"/>
      <point x="127" y="-185"/>
    </contour>
    <component base="longs"/>
    <contour>
      <point x="226" y="0" type="move" name="bottom"/>
    </contour>
    <contour>
      <point x="226" y="430" type="move" name="top"/>
    </contour>
  </outline>
</glyph>
<glyph name="longs_i" format="1">
  <advance width="460"/>
  <outline>
    <contour>
      <point x="334" y="-20" type="curve"/>
      <point x="347" y="-20"/>
      <point x="387" y="16"/>
      <point x="415" y="35" type="curve"/>
      <point x="415" y="54" type="line"/>
      <point x="384" y="68"/>
      <point x="381" y="80"/>
      <point x="380" y="97" type="curve"/>
      <point x="375" y="178"/>
      <point x="380" y="263"/>
      <point x="380" y="332" type="curve"/>
      <point x="380" y="418"/>
      <point x="334" y="464"/>
      <point x="266" y="445" type="curve"/>
      <point x="160" y="354" type="line"/>
      <point x="160" y="326" type="line"/>
      <point x="219" y="357"/>
      <point x="262" y="341"/>
      <point x="264" y="282" type="curve"/>
      <point x="267" y="200"/>
      <point x="269" y="148"/>
      <point x="264" y="35" type="curve"/>
      <point x="263" y="12"/>
      <point x="310" y="-20"/>
    </contour>
    <component base="longs"/>
    <contour>
      <point x="109" y="0" type="move" name="bottom_1"/>
    </contour>
    <contour>
      <point x="326" y="0" type="move" name="bottom_2"/>
    </contour>
    <contour>
      <point x="217.5" y="0" type="move" name="caret_1"/>
    </contour>
    <contour>
      <point x="109" y="430" type="move" name="top_1"/>
    </contour>
    <contour>
      <point x="326" y="430" type="move" name="top_2"/>
    </contour>
  </outline>
</glyph>
<glyph name="longs_t" format="1">
  <advance width="570"/>
  <outline>
    <contour>
      <point x="58" y="279" type="curve"/>
      <point x="58" y="-17" type="line"/>
      <point x="64" y="-20" type="line"/>
      <point x="170" y="9" type="line"/>
      <point x="170" y="600" type="line"/>
      <point x="184" y="610"/>
      <point x="240" y="612"/>
      <point x="254" y="612" type="curve"/>
      <point x="320" y="612"/>
      <point x="346" y="552"/>
      <point x="338" y="424" type="curve"/>
      <point x="440" y="529" type="line"/>
      <point x="437" y="672"/>
      <point x="320" y="699"/>
      <point x="284" y="699" type="curve"/>
      <point x="275" y="699"/>
      <point x="99" y="610"/>
      <point x="69" y="589" type="curve"/>
      <point x="55" y="579"/>
      <point x="54" y="578"/>
      <point x="56" y="562" type="curve"/>
      <point x="66" y="482"/>
      <point x="59" y="421"/>
      <point x="20" y="356" type="curve"/>
      <point x="20" y="349" type="line"/>
      <point x="53" y="333"/>
      <point x="58" y="323"/>
    </contour>
    <component base="t" xOffset="273"/>
    <contour>
      <point x="315" y="0" type="move" name="caret_1"/>
    </contour>
  </outline>
</glyph>
<glyph name="o_r" format="1">
  <advance width="694"/>
  <outline>
    <contour>
      <point x="533" y="-20" type="curve"/>
      <point x="559" y="0"/>
      <point x="633" y="41"/>
      <point x="669" y="73" type="curve"/>
      <point x="657" y="95" type="line"/>
      <point x="614" y="80"/>
      <point x="568" y="101"/>
      <point x="521" y="144" type="curve"/>
      <point x="577" y="206"/>
      <point x="644" y="269"/>
      <point x="644" y="347" type="curve"/>
      <point x="644" y="407"/>
      <point x="583" y="450"/>
      <point x="510" y="450" type="curve"/>
      <point x="494" y="450"/>
      <point x="427" y="383"/>
      <point x="387" y="353" type="curve"/>
      <point x="396" y="310" type="line"/>
      <point x="407" y="322"/>
      <point x="423" y="354"/>
      <point x="464" y="354" type="curve"/>
      <point x="500" y="354"/>
      <point x="545" y="331"/>
      <point x="545" y="274" type="curve"/>
      <point x="545" y="211"/>
      <point x="445" y="122"/>
      <point x="414" y="95" type="curve"/>
      <point x="414" y="88" type="line"/>
      <point x="448" y="56"/>
      <point x="508" y="-10"/>
    </contour>
    <component base="o"/>
    <contour>
      <point x="166" y="0" type="move" name="bottom_1"/>
    </contour>
    <contour>
      <point x="498" y="0" type="move" name="bottom_2"/>
    </contour>
    <contour>
      <point x="332" y="0" type="move" name="caret_1"/>
    </contour>
    <contour>
      <point x="0" y="0" type="move" name="center_1"/>
    </contour>
    <contour>
      <point x="0" y="0" type="move" name="center_2"/>
    </contour>
    <contour>
      <point x="0" y="0" type="move" name="ogonek_1"/>
    </contour>
    <contour>
      <point x="0" y="0" type="move" name="ogonek_2"/>
    </contour>
    <contour>
      <point x="166" y="430" type="move" name="top_1"/>
    </contour>
    <contour>
      <point x="498" y="430" type="move" name="top_2"/>
    </contour>
    <contour>
      <point x="0" y="0" type="move" name="topright_1"/>
    </contour>
    <contour>
      <point x="0" y="0" type="move" name="topright_2"/>
    </contour>
  </outline>
</glyph>
<glyph name="o_ra" format="1">
  <advance width="488"/>
  <outline>
    <contour>
      <point x="152" y="529" type="curve"/>
      <point x="190" y="544"/>
      <point x="249" y="593"/>
      <point x="259" y="593" type="curve"/>
      <point x="282" y="577"/>
      <point x="302" y="531"/>
      <point x="332" y="531" type="curve"/>
      <point x="367" y="541"/>
      <point x="414" y="568"/>
      <point x="473" y="626" type="curve"/>
      <point x="458" y="652" type="line"/>
      <point x="431" y="619"/>
      <point x="404" y="621"/>
      <point x="384" y="620" type="curve"/>
      <point x="356" y="620"/>
      <point x="330" y="645"/>
      <point x="320" y="685" type="curve"/>
      <point x="312" y="687" type="line"/>
      <point x="287" y="652"/>
      <point x="267" y="617"/>
      <point x="218" y="617" type="curve"/>
      <point x="187" y="617"/>
      <point x="161" y="645"/>
      <point x="159" y="698" type="curve"/>
      <point x="151" y="698" type="line"/>
      <point x="132" y="683"/>
      <point x="45" y="618"/>
      <point x="14" y="585" type="curve"/>
      <point x="32" y="564" type="line"/>
      <point x="32" y="560"/>
      <point x="52" y="589"/>
      <point x="80" y="583" type="curve"/>
      <point x="115" y="576"/>
      <point x="141" y="529"/>
    </contour>
    <component base="o" xOffset="12"/>
    <contour>
      <point x="239" y="0" type="move" name="bottom"/>
    </contour>
    <contour>
      <point x="239" y="215" type="move" name="center"/>
    </contour>
    <contour>
      <point x="420" y="10" type="move" name="ogonek"/>
    </contour>
    <contour>
      <point x="239" y="430" type="move" name="top"/>
    </contour>
    <contour>
      <point x="445" y="430" type="move" name="topright"/>
    </contour>
  </outline>
</glyph>
<glyph name="p_o" format="1">
  <advance width="841"/>
  <outline>
    <component base="p"/>
    <component base="o" xOffset="388"/>
    <contour>
      <point x="210" y="0" type="move" name="bottom_1"/>
    </contour>
    <contour>
      <point x="631" y="0" type="move" name="bottom_2"/>
    </contour>
    <contour>
      <point x="420.5" y="0" type="move" name="caret_1"/>
    </contour>
    <contour>
      <point x="210" y="430" type="move" name="top_1"/>
    </contour>
    <contour>
      <point x="631" y="430" type="move" name="top_2"/>
    </contour>
  </outline>
</glyph>
<glyph name="p_urrot" format="1">
  <advance width="524"/>
  <outline>
    <contour>
      <point x="236" y="502" type="curve"/>
      <point x="249" y="502"/>
      <point x="404" y="577"/>
      <point x="453" y="609" type="curve"/>
      <point x="436" y="635" type="line"/>
      <point x="420" y="628"/>
      <point x="338" y="586"/>
      <point x="325" y="586" type="curve"/>
      <point x="302" y="586"/>
      <point x="312" y="730"/>
      <point x="305" y="730" type="curve"/>
      <point x="291" y="730"/>
      <point x="143" y="682"/>
      <point x="95" y="652" type="curve"/>
      <point x="106" y="622" type="line"/>
      <point x="133" y="636"/>
      <point x="198" y="653"/>
      <point x="219" y="653" type="curve"/>
      <point x="227" y="653"/>
      <point x="226" y="502"/>
    </contour>
    <component base="p"/>
    <contour>
      <point x="264" y="0" type="move" name="bottom"/>
    </contour>
    <contour>
      <point x="264" y="430" type="move" name="top"/>
    </contour>
  </outline>
</glyph>
<glyph name="q_strok_ra" format="1">
  <advance width="732"/>
  <outline>
    <contour>
      <point x="368" y="-2" type="curve"/>
      <point x="394" y="-36" type="line"/>
      <point x="598" y="145"/>
      <point x="712" y="264"/>
      <point x="712" y="316" type="curve"/>
      <point x="712" y="390"/>
      <point x="631" y="440"/>
      <point x="579" y="461" type="curve"/>
      <point x="539" y="440"/>
      <point x="494" y="407"/>
      <point x="438" y="392" type="curve"/>
      <point x="435" y="334" type="line"/>
      <point x="468" y="359"/>
      <point x="496" y="373"/>
      <point x="515" y="373" type="curve"/>
      <point x="550" y="373"/>
      <point x="613" y="322"/>
      <point x="613" y="275" type="curve"/>
      <point x="613" y="203"/>
      <point x="468" y="69"/>
    </contour>
    <contour>
      <point x="509" y="525" type="curve"/>
      <point x="534" y="539"/>
      <point x="584" y="581"/>
      <point x="618" y="605" type="curve"/>
      <point x="606" y="623" type="line"/>
      <point x="567" y="611"/>
      <point x="531" y="610"/>
      <point x="490" y="656" type="curve"/>
      <point x="459" y="633"/>
      <point x="419" y="606"/>
      <point x="389" y="606" type="curve"/>
      <point x="367" y="606"/>
      <point x="328" y="642"/>
      <point x="303" y="658" type="curve"/>
      <point x="272" y="638"/>
      <point x="222" y="608"/>
      <point x="192" y="591" type="curve"/>
      <point x="204" y="569" type="line"/>
      <point x="206" y="568"/>
      <point x="231" y="582"/>
      <point x="250" y="582" type="curve"/>
      <point x="268" y="582"/>
      <point x="297" y="551"/>
      <point x="328" y="526" type="curve"/>
      <point x="359" y="541"/>
      <point x="409" y="578"/>
      <point x="418" y="578" type="curve"/>
      <point x="457" y="578"/>
      <point x="491" y="525"/>
    </contour>
    <component base="q"/>
    <contour>
      <point x="122" y="0" type="move" name="bottom_1"/>
    </contour>
    <contour>
      <point x="366" y="0" type="move" name="bottom_2"/>
    </contour>
    <contour>
      <point x="610" y="0" type="move" name="bottom_3"/>
    </contour>
    <contour>
      <point x="244" y="0" type="move" name="caret_1"/>
    </contour>
    <contour>
      <point x="488" y="0" type="move" name="caret_2"/>
    </contour>
    <contour>
      <point x="122" y="430" type="move" name="top_1"/>
    </contour>
    <contour>
      <point x="366" y="430" type="move" name="top_2"/>
    </contour>
    <contour>
      <point x="610" y="430" type="move" name="top_3"/>
    </contour>
  </outline>
</glyph>
<glyph name="r_hook" format="1">
  <advance width="345"/>
  <outline>
    <contour>
      <point x="165" y="455" type="curve"/>
      <point x="191" y="441" type="line"/>
      <point x="243" y="515"/>
      <point x="303" y="590"/>
      <point x="303" y="621" type="curve"/>
      <point x="303" y="662"/>
      <point x="262" y="698"/>
      <point x="204" y="693" type="curve"/>
      <point x="198" y="693" type="line"/>
      <point x="129" y="620" type="line"/>
      <point x="129" y="615" type="line"/>
      <point x="176" y="607"/>
      <point x="214" y="592"/>
      <point x="215" y="554" type="curve"/>
      <point x="216" y="522"/>
      <point x="186" y="489"/>
    </contour>
    <component base="r"/>
    <contour>
      <point x="160" y="0" type="move" name="bottom"/>
    </contour>
    <contour>
      <point x="160" y="430" type="move" name="top"/>
    </contour>
  </outline>
</glyph>
<glyph name="r_macr" format="1">
  <advance width="345"/>
  <outline>
    <contour>
      <point x="71" y="558" type="curve"/>
      <point x="96" y="549" type="line"/>
      <point x="111" y="562"/>
      <point x="141" y="577"/>
      <point x="163" y="579" type="curve"/>
      <point x="186" y="580"/>
      <point x="246" y="578"/>
      <point x="270" y="579" type="curve"/>
      <point x="283" y="580"/>
      <point x="313" y="643"/>
      <point x="336" y="677" type="curve"/>
      <point x="307" y="684" type="line"/>
      <point x="294" y="677"/>
      <point x="281" y="674"/>
      <point x="259" y="673" type="curve"/>
      <point x="236" y="671"/>
      <point x="180" y="671"/>
      <point x="156" y="670" type="curve"/>
      <point x="144" y="669"/>
      <point x="94" y="592"/>
    </contour>
    <component base="r"/>
    <contour>
      <point x="160" y="0" type="move" name="bottom"/>
    </contour>
    <contour>
      <point x="160" y="430" type="move" name="top"/>
    </contour>
  </outline>
</glyph>
<glyph name="t_hook" format="1">
  <advance width="297"/>
  <outline>
    <contour>
      <point x="218" y="505" type="curve"/>
      <point x="242" y="483" type="line"/>
      <point x="321" y="547"/>
      <point x="447" y="637"/>
      <point x="447" y="651" type="curve"/>
      <point x="447" y="685"/>
      <point x="427" y="720"/>
      <point x="392" y="738" type="curve"/>
      <point x="386" y="738" type="line"/>
      <point x="268" y="708" type="line"/>
      <point x="268" y="697" type="line"/>
      <point x="303" y="680"/>
      <point x="334" y="664"/>
      <point x="334" y="625" type="curve"/>
      <point x="334" y="580"/>
      <point x="248" y="534"/>
    </contour>
    <component base="t"/>
  </outline>
</glyph>
<glyph name="t_u" format="1">
  <advance width="702"/>
  <outline>
    <contour>
      <point x="519" y="73" type="curve"/>
      <point x="536" y="33"/>
      <point x="553" y="0"/>
      <point x="599" y="-20" type="curve"/>
      <point x="620" y="-20"/>
      <point x="682" y="41"/>
      <point x="697" y="58" type="curve"/>
      <point x="695" y="81" type="line"/>
      <point x="665" y="80"/>
      <point x="635" y="88"/>
      <point x="634" y="124" type="curve"/>
      <point x="631" y="220"/>
      <point x="632" y="343"/>
      <point x="638" y="450" type="curve"/>
      <point x="632" y="452" type="line"/>
      <point x="513" y="396" type="line"/>
      <point x="523" y="306"/>
      <point x="518" y="155"/>
    </contour>
    <contour>
      <point x="164" y="132" type="curve"/>
      <point x="164" y="205"/>
      <point x="163" y="269"/>
      <point x="166" y="342" type="curve"/>
      <point x="298" y="341" type="line"/>
      <point x="302" y="259"/>
      <point x="298" y="176"/>
      <point x="298" y="94" type="curve"/>
      <point x="271" y="82"/>
      <point x="231" y="71"/>
      <point x="206" y="71" type="curve"/>
      <point x="177" y="71"/>
      <point x="164" y="85"/>
    </contour>
    <contour>
      <point x="531" y="67" type="curve"/>
      <point x="526" y="110" type="line"/>
      <point x="509" y="95"/>
      <point x="479" y="73"/>
      <point x="450" y="73" type="curve"/>
      <point x="416" y="73"/>
      <point x="403" y="124"/>
      <point x="403" y="212" type="curve"/>
      <point x="403" y="306"/>
      <point x="406" y="365"/>
      <point x="418" y="450" type="curve"/>
      <point x="410" y="454" type="line"/>
      <point x="375" y="445"/>
      <point x="303" y="430"/>
      <point x="267" y="430" type="curve"/>
      <point x="167" y="430" type="line"/>
      <point x="167" y="529" type="line"/>
      <point x="153" y="530" type="line"/>
      <point x="112" y="475"/>
      <point x="71" y="430"/>
      <point x="10" y="375" type="curve"/>
      <point x="11" y="362" type="line"/>
      <point x="41" y="353"/>
      <point x="53" y="343"/>
      <point x="53" y="325" type="curve"/>
      <point x="55" y="239"/>
      <point x="55" y="152"/>
      <point x="53" y="66" type="curve"/>
      <point x="52" y="31"/>
      <point x="117" y="-20"/>
      <point x="147" y="-20" type="curve"/>
      <point x="178" y="-20"/>
      <point x="251" y="33"/>
      <point x="298" y="70" type="curve"/>
      <point x="308" y="35"/>
      <point x="328" y="0"/>
      <point x="364" y="-24" type="curve"/>
      <point x="422" y="-5"/>
      <point x="489" y="40"/>
    </contour>
    <contour>
      <point x="470" y="0" type="move" name="bottom"/>
    </contour>
    <contour>
      <point x="174" y="0" type="move" name="bottom_1"/>
    </contour>
    <contour>
      <point x="523" y="0" type="move" name="bottom_2"/>
    </contour>
    <contour>
      <point x="348.5" y="0" type="move" name="caret_1"/>
    </contour>
    <contour>
      <point x="0" y="0" type="move" name="center_1"/>
    </contour>
    <contour>
      <point x="0" y="0" type="move" name="center_2"/>
    </contour>
    <contour>
      <point x="656" y="10" type="move" name="ogonek"/>
    </contour>
    <contour>
      <point x="470" y="430" type="move" name="top"/>
    </contour>
    <contour>
      <point x="174" y="430" type="move" name="top_1"/>
    </contour>
    <contour>
      <point x="523" y="430" type="move" name="top_2"/>
    </contour>
    <contour>
      <point x="682" y="430" type="move" name="topright"/>
    </contour>
    <contour>
      <point x="0" y="0" type="move" name="topright_1"/>
    </contour>
    <contour>
      <point x="0" y="0" type="move" name="topright_2"/>
    </contour>
  </outline>
</glyph>
<glyph name="v_o.ss01" format="1">
  <advance width="1084"/>
  <outline>
    <contour>
      <point x="411" y="285" type="curve"/>
      <point x="430" y="253" type="line"/>
      <point x="446" y="275"/>
      <point x="493" y="325"/>
      <point x="541" y="325" type="curve"/>
      <point x="586" y="325"/>
      <point x="639" y="277"/>
      <point x="639" y="229" type="curve"/>
      <point x="639" y="184"/>
      <point x="586" y="112"/>
      <point x="513" y="86" type="curve"/>
      <point x="452" y="212"/>
      <point x="410" y="320"/>
      <point x="314" y="428" type="curve"/>
      <point x="281" y="465"/>
      <point x="243" y="500"/>
      <point x="187" y="500" type="curve"/>
      <point x="170" y="500"/>
      <point x="60" y="421"/>
      <point x="0" y="372" type="curve"/>
      <point x="21" y="358" type="line"/>
      <point x="58" y="383"/>
      <point x="83" y="396"/>
      <point x="122" y="396" type="curve"/>
      <point x="224" y="396"/>
      <point x="358" y="157"/>
      <point x="430" y="-19" type="curve"/>
      <point x="446" y="-19" type="line"/>
      <point x="558" y="67"/>
      <point x="741" y="157"/>
      <point x="741" y="285" type="curve"/>
      <point x="741" y="357"/>
      <point x="677" y="449"/>
      <point x="604" y="449" type="curve"/>
      <point x="568" y="449"/>
      <point x="465" y="341"/>
    </contour>
    <component base="o" xOffset="631"/>
  </outline>
</glyph>
<glyph name="z.ss01" format="1">
  <advance width="309"/>
  <outline>
    <contour>
      <point x="28" y="-238" type="curve"/>
      <point x="47" y="-260" type="line"/>
      <point x="116" y="-201"/>
      <point x="294" y="-59"/>
      <point x="294" y="60" type="curve"/>
      <point x="294" y="144"/>
      <point x="234" y="178"/>
      <point x="157" y="189" type="curve"/>
      <point x="192" y="246"/>
      <point x="253" y="304"/>
      <point x="253" y="328" type="curve"/>
      <point x="253" y="389"/>
      <point x="215" y="446"/>
      <point x="136" y="446" type="curve"/>
      <point x="114" y="446"/>
      <point x="61" y="385"/>
      <point x="19" y="346" type="curve"/>
      <point x="33" y="325" type="line"/>
      <point x="33" y="325"/>
      <point x="58" y="338"/>
      <point x="82" y="338" type="curve"/>
      <point x="112" y="338"/>
      <point x="132" y="300"/>
      <point x="132" y="261" type="curve"/>
      <point x="132" y="237"/>
      <point x="123" y="205"/>
      <point x="102" y="180" type="curve"/>
      <point x="82" y="156"/>
      <point x="45" y="125"/>
      <point x="15" y="97" type="curve"/>
      <point x="35" y="79" type="line"/>
      <point x="45" y="86"/>
      <point x="55" y="95"/>
      <point x="62" y="95" type="curve"/>
      <point x="119" y="95"/>
      <point x="186" y="66"/>
      <point x="186" y="-7" type="curve"/>
      <point x="186" y="-86"/>
      <point x="83" y="-193"/>
    </contour>
    <contour>
      <point x="1331" y="-211" type="move"/>
    </contour>
    <contour>
      <point x="288" y="0" type="move" name="bottom"/>
    </contour>
    <contour>
      <point x="288" y="430" type="move" name="top"/>
    </contour>
  </outline>
</glyph>
